<svg width="73" height="72" viewBox="0 0 73 72" fill="none" xmlns="http://www.w3.org/2000/svg"><path d="M71.003 24.674l-8.12-13.378a8.03 8.03 0 00-6.815-3.843h-2.916a.69.69 0 00-.075-.157l-4.06-6.013-.06-.075-.035-.034a.674.674 0 00-.196-.13.563.563 0 00-.236-.048H24.494a.719.719 0 00-.203.041h-.054a.806.806 0 00-.176.123l-.04.04-.061.07-4.06 6.013a.984.984 0 00-.075.157h-2.896a8.031 8.031 0 00-6.828 3.856l-8.12 13.378c-3.69 6.08-2.088 14.005 3.667 18.143l.055.04 7.782 4.45a.757.757 0 00-.061.212l-2.03 23.733a.674.674 0 00.67.744h48.87a.68.68 0 00.676-.744L59.58 47.52a.76.76 0 00-.06-.212l7.815-4.45.054-.041c5.737-4.155 7.315-12.076 3.614-18.143zM48.517 2.955l3.2 4.778-11.93 20.989H33.88L48.516 2.955zm-1.198-.594L36.492 21.384 25.665 2.361h21.654zm-22.845.594l11.24 19.794-2.957 5.208L21.253 7.713l3.22-4.758zm35.702 67.662H12.808l1.448-16.722h15.198L26.64 64.91a.683.683 0 00.677.853h7.207a.677.677 0 00.676-.512l1.557-6.095 1.556 6.095c.08.31.36.522.677.512h7.186a.687.687 0 00.656-.853l-2.814-11.003H58.74l1.435 16.71zM50.58 51.581a.68.68 0 00.406.341c.063.01.127.01.19 0a.68.68 0 00.338-.089l5.231-2.983 1.448-.819.427 4.512H43.665l-1.523-5.986h5.853l2.585 5.024zm-4.784-12.232l4.026-2.273 5.691 10.921-4.1 2.335-5.617-10.983zm-.507 25.064h-5.82l-4.554-17.856h5.82l4.554 17.856zm-9.244-7.918a.476.476 0 00-.068.13l-1.982 7.788h-5.826l4.554-17.856h.785l2.537 9.938zm-6.28-3.877a.623.623 0 00-.297-.075h-15.11l.392-4.519 1.441.82h.034l5.23 2.982c.104.06.22.09.34.089a.6.6 0 00.189 0 .68.68 0 00.406-.341l2.598-5.017h6.327l-1.55 6.061zm36.84-10.934h-.028l-9.859 5.63-5.684-10.92 9.203-5.154h2.957a.68.68 0 00.676-.682.68.68 0 00-.676-.683h-2.761l-4.994-7.808a.676.676 0 00-.944-.181.69.69 0 00-.18.952l4.792 7.508-14.542 8.136a.686.686 0 00-.278.908l2.991 5.802H25.705l2.991-5.802a.686.686 0 00-.277-.908l-14.542-8.136 4.79-7.508a.69.69 0 00-.178-.952.676.676 0 00-.944.18l-4.994 7.83H9.79a.68.68 0 00-.677.682.68.68 0 00.677.683h2.957l9.203 5.153-3.729 7.099a.687.687 0 00.281.925c.33.177.741.05.917-.284l3.688-7.078 4.06 2.273-5.623 10.976-4.1-2.335.676-1.27a.686.686 0 00-.263-.927.674.674 0 00-.935.293l-.677 1.229-9.866-5.631c-5.15-3.734-6.574-10.841-3.268-16.3l8.12-13.371a6.68 6.68 0 015.664-3.195h3.424l11.72 20.62c.006.11.037.218.088.314.123.21.348.337.59.335h7.443a.675.675 0 00.588-.341l11.91-20.941h3.424a6.68 6.68 0 015.664 3.194l8.12 13.371c3.316 5.46 1.893 12.577-3.262 16.314z" fill="#FF8C9D"/><path d="M42.846 28.647a.68.68 0 00-.677.682v3.857H30.814v-3.857a.68.68 0 00-.676-.682.68.68 0 00-.677.682v4.54a.68.68 0 00.677.682h12.708a.68.68 0 00.677-.683V29.33a.68.68 0 00-.677-.682zm23.224-5.939l-2.294-3.863a.673.673 0 00-.946-.15.686.686 0 00-.218.833l2.3 3.89a.676.676 0 00.934.226.686.686 0 00.224-.936zm-3.607-6.013l-.893-1.481a.674.674 0 00-.927-.225.686.686 0 00-.23.935l.886 1.454a.676.676 0 00.934.225.686.686 0 00.23-.908zM21.307 67.054h-5.413a.68.68 0 00-.677.683.68.68 0 00.676.683h5.414a.68.68 0 00.677-.683.68.68 0 00-.677-.683z" fill="#FF8C9D"/></svg>