<svg width="87" height="52" viewBox="0 0 87 52" fill="none" xmlns="http://www.w3.org/2000/svg"><path d="M86.968 23.4a.753.753 0 00-.715-.537H46.79l1.038-.705a.749.749 0 00.12-.09c4.816-4.86 4.816-12.728 0-17.588a15.25 15.25 0 00-19.05-2.052L8.065 16.417a15.587 15.587 0 00-2.574 2.068c-7.321 7.373-7.321 19.325 0 26.698A23.172 23.172 0 0020.54 52h24.528a.749.749 0 00.414-.129L86.667 24.25a.76.76 0 00.3-.849zM29.718 3.693A13.753 13.753 0 0146.88 5.54c4.211 4.246 4.235 11.115.053 15.39L29.162 32.868a12.453 12.453 0 00-2.258-14.39 14.95 14.95 0 00-12.79-4.303L29.718 3.692zm15.146 46.792H20.607a21.634 21.634 0 01-14.047-6.37c-6.736-6.772-6.743-17.759-.015-24.54l.015-.015a13.964 13.964 0 012.039-1.696h.052l.241-.205a13.566 13.566 0 0116.96 1.879c4.197 4.236 4.197 11.093 0 15.33a9.047 9.047 0 01-1.122.969l-.218.144a8.43 8.43 0 01-10.601-1.114 6.712 6.712 0 010-9.43 5.137 5.137 0 017.275 0 4.003 4.003 0 01.016 5.635l-.016.016a2.996 2.996 0 01-4.256.018l-.017-.018a.749.749 0 00-1.061-.083.76.76 0 000 1.15 4.493 4.493 0 006.384.02l.019-.02a5.533 5.533 0 000-7.785 6.62 6.62 0 00-9.405 0c-3.168 3.196-3.168 8.37 0 11.565a9.897 9.897 0 0012.745 1.129l18.96-12.71h39.23L44.864 50.486z" fill="#FF8C9D"/><path d="M11.548 41.608l.023.03a8.485 8.485 0 01-4.477-6.059.765.765 0 10-1.505.273 9.991 9.991 0 005.267 7.105.755.755 0 001.101-.671.758.758 0 00-.409-.678zm54.853-9.941a.77.77 0 00-1.08-.178l-9.78 6.544a.76.76 0 00-.205 1.051.75.75 0 00.626.335h.067a.704.704 0 00.414-.128l9.781-6.537a.782.782 0 00.177-1.087zm6.181-4.117a.751.751 0 00-1.046-.211l-2.814 1.893a.76.76 0 00-.224 1.047.751.751 0 001.052.218l2.821-1.893a.763.763 0 00.211-1.053zM41.92 30.429a.75.75 0 00-.984-.197l-7.524 5.044a.76.76 0 00-.223 1.047.757.757 0 001.059.218l7.524-5.052a.76.76 0 00.149-1.06z" fill="#FF8C9D"/></svg>