<svg width="25" height="74" viewBox="0 0 25 74" fill="none" xmlns="http://www.w3.org/2000/svg"><path d="M22.419 31.075c2.033-4.944 2.026-9.98 2.02-15.348V14.4c0-2.785-2.228-5.043-4.975-5.043h-.118V5.01a.658.658 0 00-.654-.663h-3.53V1.822C15.162.782 13.893 0 12.22 0c-1.674 0-2.942.782-2.942 1.823v2.524h-3.53a.658.658 0 00-.654.663v4.354h-.118c-2.748 0-4.975 2.258-4.975 5.044v1.425c0 5.301 0 10.338 1.961 15.242a7.241 7.241 0 010 5.5C-.018 41.5-.006 46.518.001 51.833v17.125C0 71.742 2.228 74 4.976 74h14.488c2.747 0 4.975-2.258 4.975-5.043V51.945c0-5.355 0-10.405-2.02-15.35a7.296 7.296 0 010-5.52zM19.457 10.69c2.026-.004 3.67 1.658 3.674 3.711v5.01h-7.597V10.69h3.923zm-8.872-8.814a2.08 2.08 0 011.635-.517 2.195 2.195 0 011.634.497V4.38h-3.269V1.876zm-4.184 3.83h11.637v3.658h-2.902a.647.647 0 00-.51 0H9.814a.646.646 0 00-.51 0H6.401V5.706zm5.819 10.392a.658.658 0 00.654-.663V10.69h1.353v12.393c0 .966-.773 1.75-1.726 1.75h-.562a1.738 1.738 0 01-1.726-1.75V10.69h1.353v4.745c0 .366.293.663.654.663zm-10.912-.259v-1.431c0-2.054 1.642-3.718 3.668-3.718h3.923v8.715H1.328c-.02-1.173-.02-2.366-.02-3.566zm21.823 53.118c-.003 2.052-1.643 3.714-3.667 3.718h-1.811v-3.201a.658.658 0 00-.654-.663.658.658 0 00-.654.663v3.187H7.748v-3.187a.658.658 0 00-.654-.663.658.658 0 00-.654.663v3.187H4.976c-2.024-.003-3.664-1.666-3.668-3.718V61.9h21.823v7.058zm0-11.91h-4.439a.658.658 0 00-.654.663c0 .366.293.663.654.663h4.44v2.2H1.307v-6.395H23.13v2.87zm0-5.11v.915H1.308v-1.02c-.096-3.17.055-6.344.451-9.49h3.825a.658.658 0 00.654-.663.658.658 0 00-.654-.663H2.021c.118-.55.248-1.1.405-1.643h6.845a.658.658 0 00.654-.663.658.658 0 00-.654-.663H2.845c.11-.318.229-.663.36-.954.13-.292.195-.517.274-.776h3.89a.658.658 0 00.654-.662.658.658 0 00-.654-.663H3.753a8.266 8.266 0 00-.549-4.42 28.111 28.111 0 01-1.837-9.842h7.538v2.353c0 1.698 1.358 3.075 3.034 3.075h.562c1.675 0 3.033-1.377 3.033-3.075V20.73h7.538a28.393 28.393 0 01-1.856 9.835 8.59 8.59 0 000 6.541c1.928 4.699 1.922 9.623 1.915 14.832z" fill="#FF8C9D"/><path d="M12.22 21.227c.632 0 1.144-.52 1.144-1.16 0-.64-.512-1.16-1.144-1.16-.632 0-1.144.52-1.144 1.16 0 .64.512 1.16 1.144 1.16z" fill="#FF8C9D"/></svg>