<svg width="62" height="74" viewBox="0 0 62 74" fill="none" xmlns="http://www.w3.org/2000/svg"><path d="M30.977 14.589c-15.523-.004-28.11 12.633-28.115 28.226v.015c.02 15.58 12.59 28.206 28.1 28.227 15.523.004 28.11-12.634 28.115-28.227.004-15.593-12.577-28.237-28.1-28.241zm0 54.977c-14.7.004-26.62-11.962-26.624-26.728v-.008c.013-14.758 11.917-26.72 26.61-26.736 14.699-.004 26.619 11.963 26.623 26.729.004 14.766-11.91 26.74-26.609 26.743z" fill="#FF8C9D"/><path d="M51.972 19.906l2.87-4.403a.751.751 0 00-.216-1.034l-1.901-1.296a.674.674 0 00-.634-.419l-3.519-2.307a.744.744 0 00-1.029.218l-2.773 4.253a30.736 30.736 0 00-9.461-2.995.645.645 0 000-.128V6.68h1.655a3.288 3.288 0 003.273-3.287v-.105A3.288 3.288 0 0036.964 0H24.93a3.288 3.288 0 00-3.273 3.288v.127a3.288 3.288 0 003.273 3.288h1.655v5.152a.63.63 0 000 .128C9.626 14.45-2.132 30.262.325 47.299 2.53 62.6 15.57 73.964 30.962 74 48.09 74.013 61.987 60.075 62 42.868a31.218 31.218 0 00-10.028-22.962zm-3.594-7.796l2.587 1.7-1.215 1.872a.75.75 0 00.216 1.041.743.743 0 001.03-.217l1.222-1.88.991.652-2.363 3.632a31.595 31.595 0 00-4.75-3.288l2.282-3.512zM24.931 5.205a1.786 1.786 0 01-1.783-1.79v-.127c0-.989.798-1.79 1.783-1.79h1.789v1.498c0 .413.334.749.745.749a.747.747 0 00.746-.75V1.499h2.237v1.498a.746.746 0 101.491 0V1.498h2.236v1.498c0 .413.334.749.746.749a.747.747 0 00.745-.75V1.499h1.313a1.786 1.786 0 011.797 1.775v.141c0 .989-.798 1.79-1.782 1.79H24.93zm6.985 5.107a.747.747 0 00.746-.748V6.68h1.185v5.108a33.378 33.378 0 00-2.885-.135c-.977 0-1.93.053-2.885.135V6.68h3.094v2.884c0 .413.334.748.745.748zm-.954 62.198c-16.318 0-29.546-13.288-29.546-29.68.016-16.384 13.235-29.663 29.546-29.68 16.318 0 29.546 13.289 29.546 29.68 0 16.392-13.228 29.68-29.546 29.68z" fill="#FF8C9D"/><path d="M30.962 17.322c-13.967 0-25.289 11.374-25.289 25.403.033 14.017 11.336 25.37 25.29 25.404 13.966 0 25.288-11.374 25.288-25.404S44.93 17.322 30.962 17.322zm0 49.309c-13.143 0-23.798-10.703-23.798-23.906.033-13.189 10.668-23.872 23.798-23.905 13.143 0 23.798 10.703 23.798 23.905 0 13.203-10.655 23.906-23.798 23.906z" fill="#FF8C9D"/><path d="M44.531 30.953a.752.752 0 00.019-1.06.744.744 0 00-1.055-.019L32.953 40.12a.75.75 0 00-.142.202 3.018 3.018 0 00-4.244.56 3.05 3.05 0 00.557 4.264 3.018 3.018 0 001.838.629 2.988 2.988 0 003.056-2.92 3.008 3.008 0 00-.35-1.484.844.844 0 00.321-.172l10.542-10.245zM30.962 44.276a1.547 1.547 0 01-1.543-1.55c0-.857.69-1.55 1.543-1.55.852 0 1.543.693 1.543 1.55 0 .856-.69 1.55-1.543 1.55zm.388 20.078c.572 0 1.036-.466 1.036-1.04 0-.576-.464-1.042-1.036-1.042-.573 0-1.037.466-1.037 1.041s.464 1.041 1.037 1.041zm10.37-2.779c.573 0 1.037-.466 1.037-1.04 0-.575-.464-1.041-1.037-1.041-.572 0-1.036.466-1.036 1.04 0 .575.464 1.041 1.036 1.041zm7.605-10.417a1.046 1.046 0 00-1.066 1.026 1.047 1.047 0 001.021 1.07 1.046 1.046 0 001.066-1.025v-.022c0-.57-.453-1.037-1.021-1.049zm2.05-10.425a1.046 1.046 0 00-1.029 1.049c0 .579.468 1.048 1.044 1.049h.015a1.046 1.046 0 001.029-1.064 1.046 1.046 0 00-1.059-1.034zm-2.035-8.335a1.046 1.046 0 00-1.052 1.041v.015a1.04 1.04 0 001.037 1.041 1.046 1.046 0 001.051-1.041 1.046 1.046 0 00-1.036-1.056zm-7.68-8.32a1.039 1.039 0 00-1.006 1.04 1.04 1.04 0 001.036 1.042h.03a1.04 1.04 0 001.007-1.071 1.038 1.038 0 00-1.066-1.01zM20.234 59.493h-.03a1.04 1.04 0 00-1.006 1.071 1.038 1.038 0 001.065 1.01 1.039 1.039 0 001.007-1.04c0-.575-.464-1.04-1.036-1.04zm-7.59-8.342a1.046 1.046 0 00-1.066 1.026v.03c0 .57.455 1.033 1.021 1.04a1.046 1.046 0 001.066-1.025 1.046 1.046 0 00-1.021-1.07zm-2.11-10.418a1.046 1.046 0 00-1.051 1.041v.008c0 .576.463 1.044 1.036 1.048a1.046 1.046 0 001.051-1.04 1.046 1.046 0 00-1.036-1.057zm2.11-8.335a1.046 1.046 0 00-1.066 1.056c0 .57.455 1.033 1.021 1.041a1.046 1.046 0 001.066-1.026 1.046 1.046 0 00-1.021-1.07zm7.56-6.238c.572 0 1.036-.466 1.036-1.041s-.464-1.041-1.036-1.041c-.573 0-1.037.466-1.037 1.04 0 .576.464 1.042 1.037 1.042zm11.146-2.779c.572 0 1.036-.466 1.036-1.041a1.038 1.038 0 10-2.073 0c0 .575.464 1.041 1.037 1.041zm-.015 1.558a.747.747 0 00-.746.749v4.77c0 .414.334.75.746.75a.747.747 0 00.745-.75v-4.77a.747.747 0 00-.745-.75zM47.55 41.04h-5.405a.747.747 0 00-.745.75c0 .413.334.748.745.748h5.406a.747.747 0 00.745-.749.747.747 0 00-.745-.749zM31.335 54.895a.747.747 0 00-.746.75v4.208c0 .414.334.749.746.749a.747.747 0 00.745-.749v-4.209a.747.747 0 00-.745-.749zM18.757 41.318h-4.57a.747.747 0 00-.745.748c0 .414.333.75.745.75h4.57a.747.747 0 00.746-.75.747.747 0 00-.746-.748z" fill="#FF8C9D"/></svg>