<svg width="129" height="107" viewBox="0 0 129 107" fill="none" xmlns="http://www.w3.org/2000/svg"><path d="M93.027 51.44c-3.09 5.75-7.254 11.322-13.137 14.419-1.294.774-2.884 1.345-3.832 2.563-1.064 1.612-.73 3.44 1.5 3.313 2.768.266 5.254-.305 7.625-1.942 3.396-2.348 7.023-4.34 10.894-5.851 11.586-3.478 23.441 2.59 32.515 9.303.641.343.525 1.054-.334.889-2.922-.102-5.241 1.332-7.177 3.173-9.496 8.605-19.019 9.62-31.079 6.688-.897-.254-3.999-1.053-3.204-2.348.846-1.206-.013-3.059 1.384-3.071 4.153-.28 7.792-1.917 11.304-3.973 2.038-1.193 4.191-2.094 6.793-2.005-8.177-1.219-12.368 6.689-21.455 3.071a188.555 188.555 0 00-6.895-2.183c-1.025-.304-2-.736-2.807-1.497-1.281-1.219-1.435-3.706-.256-5.052 8.907-9.468 4.358-24.762 18.43-30.486 3.716-1.828 8.151-2.957 10.996-6.13 1.077-1.37 1.179 2.36 1.282 2.894.448 4.645.705 9.29-.526 13.847-2.294 10.09-14.47 20.802-24.633 21.957-.307-.546.641-.838 1.051-1.155 5.345-4.214 9.715-9.862 11.56-16.424zM23.011 72.547c2.436-.025 4.55.889 6.562 2.056 3.486 2.03 7.1 3.656 11.215 3.947 1.345-.025.807 2.348 1.563 3.351.449 1.396-4.037 2.26-5.024 2.437-11.24 2.741-20.929.736-29.528-7.171-1.961-1.802-4.255-3.173-7.126-3.046-.231.013-.539.076-.641-.19-.141-.381.218-.52.448-.711 6.716-5.102 14.496-9.265 23.031-10.141 8.177-1.27 15.06 3.312 21.609 7.488 2.114 1.422 4.51 1.384 6.895 1.104 1.679-.19 2.114-2.03.858-3.427-.82-.913-1.91-1.472-2.986-2.005-6.241-3.11-10.804-8.922-13.918-14.989 1.807 6.816 6.433 12.552 11.932 16.88.307.241.948.495.743.85-.282.508-.859.077-1.294-.05a37.025 37.025 0 01-6.216-2.247C27.01 59.45 20.743 46.605 23.704 31.146c.076-.495.358-1.688.973-.889 4.396 4.887 11.715 5.103 16.392 9.672 7.947 7.056 5.435 19.393 12.894 26.793 1.5 1.764 1.204 4.53-.73 5.787-2.641 1.498-5.781 1.802-8.562 3.008-9.459 3.884-13.303-3.871-21.66-2.97zm21.032 10.915c3.255.889 6.46.813 9.727.267 1.948-.254 3.871-.66 5.768-1.13 1.922-.482 3.204.305 3.896 2.196 1.025 4.404.308 8.96 1.128 13.428.487-4.1.41-8.224.782-12.337.217-1.726 1.64-3.972 3.652-3.426 3.627 1.015 7.344 1.56 11.099 1.764 1.436.076 2.884-.178 4.268-.622.192-.064.41-.254.564-.038.192.279-.128.393-.282.546-.936.951-2.05 1.586-3.384 1.814-.679.115-.833.495-.871 1.143 0 9.608-8.305 14.849-15.418 19.761-.308.229-.667.229-.961 0-6.6-4.924-14.893-9.62-15.239-18.797.051-3.287-2.55-1.23-4.73-4.569z" fill="#FEBFC8" fill-opacity=".15"/><path d="M80.351 46.986c-.461-6.473-.012-12.692 2.077-18.747-3.204 4.81-3.256 10.636-3.525 16.22-.474-1.89-2.294-3.134-2.012-5.444.756-5.267-.91-10.433-2.397-15.459-.91-2.754-2.691-5-4.229-7.374-2.858-4.188-4.19-8.58-5.678-13.428-.538 1.472-1.089 2.64-1.397 3.871-1.73 7.793-8.407 13.162-9.817 21.056-.743 3.135-1.704 6.27-1.307 9.48.32 2.819-.41 5.103-1.974 7.362-.18-5.75-.371-11.22-3.345-16.106 1.897 6.029 2.448 12.172 1.961 18.518-.718-.267-.551-.775-.692-1.13-1.359-3.236-3.499-5.889-6.331-7.945-3.704-3.224-2.038-12.755-.231-16.766.308-.673.692-.889 1.461-.66 3 .901 5.857 2.03 8.215 4.175.859.775 1.32.711 1.718-.279 1.397-3.49 3.434-6.638 5.472-9.747 2.794-4.29 4.217-9.088 5.755-13.86.09-.279.013-.71.423-.723.474-.013.423.457.512.761 1.026 3.516 2.115 7.019 3.691 10.319 2.218 4.505 5.524 8.44 7.434 13.123.474 1.117.871 1.193 1.807.381 2.41-2.12 5.306-3.287 8.343-4.163.73-.216 1.013.127 1.282.66 1.935 4.315 2.474 9.303 1.525 13.936-.295 1.256-.871 2.26-2.012 3.084-2.922 2.132-5.011 4.95-6.254 8.364-.052.14-.052.317-.475.52z" fill="#FEBFC8" fill-opacity=".15"/><path d="M71.483 30.27c.076 2.399-.206 10.23-3.384 9.608-.897-.432-.936-1.333-.807-2.132.281-1.65.858-3.224 1.358-4.823 1.282-3.148.013-7.273-3.512-8.339-4.178-.47-6.305 5.026-4.729 8.491.449 1.79 1.41 3.566 1.308 5.432.14 1.638-1.846 1.904-2.59.61-.615-1.041-.986-2.184-1.191-3.364-1.384-6.194.282-12.362 3.37-17.794.949-1.891 1.859-3.82 2.782-5.724.102-.203.14-.508.448-.495.282.012.333.317.436.52 2.37 5.737 6.908 11.626 6.51 18.01z" fill="#FEBFC8" fill-opacity=".15"/></svg>