<svg width="28" height="41" viewBox="0 0 28 41" fill="none" xmlns="http://www.w3.org/2000/svg"><path fill-rule="evenodd" clip-rule="evenodd" d="M26.004 21.852a2.001 2.001 0 011.419.608A2.032 2.032 0 0128 23.9v2.732a2.043 2.043 0 01-.577 1.441 2.014 2.014 0 01-1.42.608h-.668v.683a6.21 6.21 0 01-.966 3.336 6.139 6.139 0 01-2.601 2.282l-.181.546a17.03 17.03 0 00-.695 3.06l-.235 1.82a.675.675 0 01-.66.592H5.338a.674.674 0 01-.444-.17.685.685 0 01-.224-.422l-.235-1.82a16.026 16.026 0 00-.687-3.078l-.135-.528a6.129 6.129 0 01-2.63-2.272A6.2 6.2 0 010 29.364V11.609a6.2 6.2 0 01.984-3.347 6.129 6.129 0 012.629-2.27l.135-.529a16.74 16.74 0 00.687-3.05L4.67.592A.674.674 0 015.338 0h14.66a.666.666 0 01.659.592l.235 1.82c.136 1.037.369 2.059.695 3.051l.18.555A6.139 6.139 0 0124.37 8.3a6.21 6.21 0 01.966 3.336h.669a2.01 2.01 0 011.41.598c.373.378.584.89.586 1.424v2.731a2.043 2.043 0 01-.577 1.441 2.014 2.014 0 01-1.42.608h-.668v3.414h.669zm-.669 5.463h.669a.665.665 0 00.612-.424.678.678 0 00.047-.259v-2.731a.678.678 0 00-.404-.628.661.661 0 00-.255-.055h-.669v4.097zm-9.339 12.292h3.423l.154-1.202c.135-1.006.352-1.999.65-2.968-.299.047-.6.072-.903.073h-3.342l.018 4.097zm-5.329 0h4.001V35.51h-4v4.097zm-4.904-1.193l.153 1.193H9.33V35.51H5.997a5.819 5.819 0 01-.903-.073c.304.972.528 1.968.669 2.977zM9.375 1.366H5.916l-.153 1.193a18.61 18.61 0 01-.65 2.977c.298-.048.6-.072.902-.073h3.333l.027-4.097zm5.338 0h-4.046v4.097h4.001l.046-4.097zm4.905 1.193l-.199-1.193h-3.423v4.097h3.342c.302.001.604.025.903.073a18.619 18.619 0 01-.668-2.977h.045zm4.426 9.05a4.775 4.775 0 00-1.366-3.378 4.673 4.673 0 00-3.34-1.402H5.998a4.688 4.688 0 00-3.312 1.418 4.764 4.764 0 00-1.35 3.362v17.755a4.764 4.764 0 001.35 3.362 4.687 4.687 0 003.311 1.418h13.341a4.687 4.687 0 003.311-1.418A4.763 4.763 0 0024 29.364l.045-17.755zm2.005 5.463a.664.664 0 00.612-.424.678.678 0 00.047-.259v-2.731a.678.678 0 00-.404-.629.666.666 0 00-.255-.054h-.668v4.097h.668zm-6.711 15.706H5.998a3.356 3.356 0 01-2.337-1.03 3.41 3.41 0 01-.951-2.384V11.609a3.41 3.41 0 01.951-2.385 3.356 3.356 0 012.336-1.03h13.341c.89.01 1.739.375 2.362 1.015.623.64.97 1.503.962 2.4v17.755a3.401 3.401 0 01-.962 2.4 3.347 3.347 0 01-2.362 1.014zm1.996-21.17a2.043 2.043 0 00-.577-1.44 2.014 2.014 0 00-1.419-.608H5.998a2 2 0 00-1.42.608 2.033 2.033 0 00-.577 1.44v8.878h1.707a6.952 6.952 0 01-.37-2.276 3.882 3.882 0 01.714-2.237 3.832 3.832 0 011.87-1.405 3.71 3.71 0 012.322-.02 3.74 3.74 0 011.886 1.368l.533.728.533-.728a3.75 3.75 0 011.89-1.369 3.719 3.719 0 012.328.021 3.832 3.832 0 011.869 1.405c.463.653.713 1.435.714 2.237a7.246 7.246 0 01-.18 1.593h1.517V11.61zM8.255 20.487l1.148-2.358a.672.672 0 01.925-.293c.105.06.192.149.249.257l2.168 3.888 1.39-1.903a.66.66 0 01.533-.274h3.758a5.33 5.33 0 00.244-1.593 2.518 2.518 0 00-.458-1.458A2.485 2.485 0 0017 15.834a2.402 2.402 0 00-1.503.01c-.487.163-.91.478-1.207.9l-1.093 1.466a.67.67 0 01-.533.255.69.69 0 01-.533-.255l-1.066-1.457a2.422 2.422 0 00-1.207-.9 2.402 2.402 0 00-1.502-.01 2.485 2.485 0 00-1.222.91 2.518 2.518 0 00-.467 1.457c.002.785.168 1.56.488 2.276h1.101zm-.225 1.366c.198.225.412.435.64.628l3.975 3.278 4.001-3.278c.455-.37.845-.813 1.156-1.31h-2.8l-1.806 2.458a.643.643 0 01-.533.273.682.682 0 01-.542-.346l-2.05-3.642-.768 1.584a.672.672 0 01-.632.355H8.03zm13.304-.683h-1.987a6.82 6.82 0 01-1.852 2.386l-4.416 3.642a.63.63 0 01-.831 0L7.84 23.555a6.817 6.817 0 01-1.517-1.703H4v7.512a2.045 2.045 0 00.577 1.44 2.014 2.014 0 001.42.608h13.34a2.001 2.001 0 001.419-.607 2.032 2.032 0 00.577-1.441v-8.195zm-6.666 7.512h1.328v1.366h-1.328V28.68zm-2.664 0h1.328v1.366h-1.328V28.68zm-2.71 0h1.337v1.366h-1.3l-.037-1.366zm2.041-17.755h1.31v1.366h-1.31v-1.366zm-2.71 0h1.329v1.366H8.67l-.045-1.366zm-1.96 2.049H5.339V11.61a.678.678 0 01.404-.628.661.661 0 01.255-.055h1.337v1.366h-.668v.683z" fill="#FF8C9D"/></svg>