<svg width="38" height="41" viewBox="0 0 38 41" fill="none" xmlns="http://www.w3.org/2000/svg"><path fill-rule="evenodd" clip-rule="evenodd" d="M27.218 15.16a.675.675 0 01.904.074.695.695 0 01.073.91l-6.332 8.848a2.403 2.403 0 01-1.755.993H19.9a2.393 2.393 0 01-1.764-.786 2.426 2.426 0 01-.624-1.838 2.463 2.463 0 01.977-1.822l8.729-6.378zm-8.05 9.112a1.068 1.068 0 00.823.31 1.044 1.044 0 00.768-.438l3.845-5.375-5.31 3.9a1.062 1.062 0 00-.436.78 1.074 1.074 0 00.31.841v-.018zm15.974-14.77l-.96-.965-1.437 1.485a18.627 18.627 0 012.397 3.29 18.655 18.655 0 012.415 9.183c0 3.221-.832 6.386-2.415 9.184v.046h-.046a18.314 18.314 0 01-6.576 6.67h-.063A17.913 17.913 0 0119.547 41h-.126a18.259 18.259 0 01-4.044-.474.688.688 0 01-.21-1.244.668.668 0 01.509-.086c1.057.243 2.136.383 3.22.42v-1.35a.686.686 0 01.396-.702.675.675 0 01.925.418.69.69 0 01.027.285v1.348a16.567 16.567 0 007.037-1.95l-.66-1.166a.688.688 0 01.244-.911.665.665 0 01.905.246L28.43 37a17.104 17.104 0 005.237-5.312l-1.167-.71a.683.683 0 01-.21-.905.68.68 0 01.88-.28l1.148.684a17.08 17.08 0 001.927-7.29h-1.33a.676.676 0 01-.48-.2.686.686 0 01.48-1.166h1.33a16.996 16.996 0 00-1.926-7.289l-1.15.674a.738.738 0 01-.334.092.676.676 0 01-.335-1.258l1.14-.674a16.978 16.978 0 00-5.228-5.312l-.66 1.166a.681.681 0 01-.588.338.665.665 0 01-.335-.092.683.683 0 01-.244-.91l.66-1.167a16.308 16.308 0 00-7.037-1.922v1.366a.695.695 0 01-.202.48.685.685 0 01-.477.204.676.676 0 01-.474-.204.686.686 0 01-.195-.48V5.467h-.624l-.724.054a16.44 16.44 0 00-1.872.328.676.676 0 01-.625-.545.688.688 0 01.362-.748 16.12 16.12 0 012.171-.365v-.774h-1.05a1.695 1.695 0 01-1.12-.542 1.72 1.72 0 010-2.333c.292-.317.692-.51 1.12-.542h6.061c.429.032.83.225 1.122.542a1.72 1.72 0 010 2.333c-.293.316-.693.51-1.122.542h-1.004v.81a17.92 17.92 0 016.92 2.333 18.4 18.4 0 013.238 2.433l1.448-1.467-.878-.92 2.859-2.898 2.849 2.898-2.85 2.897zM22.559 2.05a.343.343 0 00.288-.342.348.348 0 00-.288-.341H16.5a.343.343 0 00-.288.341.348.348 0 00.288.342h2.36v2.068h1.349V2.05h2.351zm11.624 4.556l.959.965.904-.965-.904-.966-.96.966zM13.469 34.85H8.756a.676.676 0 01-.48-.2.686.686 0 01.48-1.167h4.713c.18 0 .352.072.48.2a.686.686 0 01-.48 1.167zm0-4.783H4.713a.676.676 0 01-.48-.2.686.686 0 01.48-1.167h8.756c.18 0 .352.072.48.2a.686.686 0 01-.48 1.167zm0-4.784H.679a.676.676 0 01-.48-.2.686.686 0 01.48-1.166h12.79c.18 0 .352.072.48.2a.686.686 0 01-.48 1.166zm0-4.783H3.365a.676.676 0 01-.48-.2.686.686 0 01.48-1.167h10.104c.18 0 .352.072.48.2a.686.686 0 01-.48 1.167zm0-4.783h-6.73a.676.676 0 01-.48-.2.686.686 0 01.48-1.167h6.73c.18 0 .352.072.48.2a.686.686 0 01-.48 1.167zm0-4.784h-3.365a.676.676 0 01-.48-.2.686.686 0 01.48-1.166h3.365c.18 0 .352.072.48.2a.686.686 0 01-.48 1.166z" fill="#FF8C9D"/></svg>