<svg width="41" height="33" viewBox="0 0 41 33" fill="none" xmlns="http://www.w3.org/2000/svg"><path fill-rule="evenodd" clip-rule="evenodd" d="M38.6 33H2.4A2.39 2.39 0 010 30.64v-22a2.39 2.39 0 012.4-2.36h.8V5.5a2.39 2.39 0 012.41-2.36h1.6a2.39 2.39 0 012.4 2.36v.78h1.59l2.53-5A2.42 2.42 0 0115.88 0h9.24a2.39 2.39 0 012.14 1.3l2.54 5h8.8A2.39 2.39 0 0141 8.64v22A2.39 2.39 0 0138.6 33zm-37-7.86h10.13a10.06 10.06 0 010-11H1.6v11zm18.9 3.15a8.65 8.65 0 10-8.81-8.65 8.74 8.74 0 008.81 8.65zM8 5.5a.8.8 0 00-.8-.79H5.61a.8.8 0 00-.81.79v.78H8V5.5zM25.83 2a.8.8 0 00-.71-.44h-9.24a.8.8 0 00-.71.44L13 6.28h15L25.83 2zM39.4 8.64a.79.79 0 00-.8-.78H2.4a.79.79 0 00-.8.78v3.93H13a10.55 10.55 0 0115 0h11.4V8.64zm0 5.5H29.27a10 10 0 010 11H39.4v-11zm0 12.57H28a10.53 10.53 0 01-15 0H1.6v3.93a.8.8 0 00.8.79h36.2a.8.8 0 00.8-.79v-3.93zM32.19 9.43a.79.79 0 11-.02 1.58.79.79 0 01.02-1.58zm3.2 0H37A.79.79 0 1137 11h-1.61a.789.789 0 110-1.57zM18.1 3.14h4.8a.79.79 0 110 1.57h-4.8a.79.79 0 110-1.57zm2.4 9.43a7.07 7.07 0 11-7.21 7.07 7.15 7.15 0 017.21-7.07zm0 12.57a5.5 5.5 0 10-5.61-5.5 5.56 5.56 0 005.61 5.5zm0-9.43a.79.79 0 010 1.58 2.37 2.37 0 00-2.4 2.35.8.8 0 11-1.6 0 4 4 0 014-3.93z" fill="#FF8C9D"/></svg>