<svg width="41" height="40" viewBox="0 0 41 40" fill="none" xmlns="http://www.w3.org/2000/svg"><path fill-rule="evenodd" clip-rule="evenodd" d="M35.46 25.934L21.053 39.8a.752.752 0 01-1.02 0L5.542 25.934a17.858 17.858 0 01-4.078-5.856A17.897 17.897 0 010 13.09a10.97 10.97 0 013.251-7.71 10.91 10.91 0 017.73-3.157h.72l.588.055h.488c1.086.186 2.137.543 3.113 1.056a11.22 11.22 0 013.879 3.21l.731.979.731-.978A10.746 10.746 0 0124.844 3.5a8.07 8.07 0 013.92-3.026 8.046 8.046 0 014.945-.162 7.977 7.977 0 014.101 2.725 8.013 8.013 0 011.727 4.619l.067.111.177.322c.454.865.786 1.788.986 2.745 0 .2.078.389.111.589v.11a2.9 2.9 0 010 .323c.005.078.005.156 0 .233v.99a17.82 17.82 0 01-1.398 6.982 17.78 17.78 0 01-4.02 5.873zM23.68 10a7.92 7.92 0 010-3.91 9.74 9.74 0 00-1.263 1.355l-1.363 1.722a.743.743 0 01-.576.278c.114.383.207.773.277 1.166a9.916 9.916 0 010 5.112 8.197 8.197 0 012.66 2.388l.42.59 6.173-2.456v-.367a8.004 8.004 0 01-4.02-2.012A8.038 8.038 0 0123.68 10zm14.184-3.588a6.608 6.608 0 00-3.058-3.841 6.578 6.578 0 00-4.857-.663 6.594 6.594 0 00-3.971 2.881 6.626 6.626 0 00-.89 4.834 6.664 6.664 0 003.05 4.002 6.633 6.633 0 004.972.72 6.51 6.51 0 004.03-2.985 6.545 6.545 0 00.724-4.97v.022zm1.629 5.888v-.644a4.968 4.968 0 00-.1-.5c0-.233-.11-.478-.177-.711a8.064 8.064 0 01-3.236 4.244l1.108.734a.7.7 0 01.333.6v1.455h-1.54v-1.11l-1.452-.956c-.31.128-.629.236-.953.322a8.036 8.036 0 01-1.995.244v.734a.723.723 0 01-.465.677L24.378 20a17.06 17.06 0 00-6.981 5.145l-1.108-.911a18.481 18.481 0 016.206-4.967l-.255-.367a6.839 6.839 0 00-2.893-2.306 6.82 6.82 0 00-3.667-.46l-.842.133-.222-1.433.842-.134a8.202 8.202 0 013.978.39c.21-.534.377-1.712-.066-4.267a8.631 8.631 0 00-2.314-4.634 8.592 8.592 0 00-4.546-2.466 1.491 1.491 0 00-.32 0l-.577-.067h-.632a9.463 9.463 0 00-6.726 2.756 9.357 9.357 0 00-2.792 6.666A16.45 16.45 0 002.788 19.5a16.411 16.411 0 003.728 5.39L20.5 38.222l13.984-13.334a16.403 16.403 0 005.053-11.8 6.682 6.682 0 00-.044-.81v.021zm-29.42 4.212a.708.708 0 01-1.03 0l-3.259-3.178A4.646 4.646 0 014.432 10a2.616 2.616 0 011.574-2.455 2.63 2.63 0 012.859.567l.698.7.71-.7a2.635 2.635 0 012.847-.567A2.606 2.606 0 0114.727 10a4.656 4.656 0 01-1.43 3.334l-3.224 3.178zm2.482-7.623a1.105 1.105 0 00-1.252.245l-1.23 1.222a.742.742 0 01-1.03 0l-1.22-1.222a1.162 1.162 0 00-1.252-.245A1.109 1.109 0 005.861 10c.018.84.364 1.638.965 2.223l2.737 2.722 2.737-2.722c.609-.582.967-1.38.997-2.223a1.114 1.114 0 00-.742-1.11zm19.835 2.634a3.714 3.714 0 01-2.781-.412 3.642 3.642 0 01-1.584-4.333 3.686 3.686 0 011.579-1.868 3.67 3.67 0 012.398-.465 3.62 3.62 0 012.17 1.139 3.638 3.638 0 01-1.782 5.983v-.044zm-.909-5.711a2.217 2.217 0 00-1.872 1.084 2.227 2.227 0 00-.255 1.649 2.212 2.212 0 002.493 1.611 2.217 2.217 0 001.597-2.323 2.224 2.224 0 00-1.963-2.021z" fill="#FF8C9D"/></svg>