<svg width="35" height="41" viewBox="0 0 35 41" fill="none" xmlns="http://www.w3.org/2000/svg"><path d="M33.153 8.292a11.252 11.252 0 00-7.217-4.877l.072-.71c.422-.233.688-.601.727-1.022.046-.449-.164-.888-.577-1.207-.323-.252-.758-.416-1.22-.463-1.094-.106-2.014.447-2.1 1.277-.04.424.149.834.511 1.144l-.08.766a11.213 11.213 0 00-4.034.907l-.683-1.046c.339-.665.349-1.34.005-1.864-.32-.49-.852-.76-1.61-.746-.593.015-1.238.23-1.816.61-1.306.858-1.85 2.267-1.24 3.204.342.526.967.784 1.71.738l.647.988c-4.176 3.666-5.141 9.962-2.013 14.745a11.285 11.285 0 009.468 5.127c.295 0 .587-.04.878-.064.423 1.84 1.19 3.654 2.305 5.385.226.356.5.788.777 1.253-3.2 1.29-6.805 1.985-10.47 1.985h-.006c-3.805 0-7.518-.749-10.81-2.132.25-.406.486-.787.692-1.105 6.816-10.616-1.47-19.93-1.553-20.023a.678.678 0 00-.957-.043.683.683 0 00-.045.96c.315.349 7.66 8.645 1.416 18.37-1.278 1.995-3.66 5.71-3.26 9.935a.674.674 0 00.672.616c.024 0 .044 0 .066-.002a.679.679 0 00.612-.741c-.242-2.527.684-4.902 1.675-6.762 3.491 1.494 7.455 2.288 11.492 2.288h.006c3.9 0 7.742-.749 11.144-2.144.964 1.838 1.835 4.16 1.599 6.618a.681.681 0 00.677.743c.345 0 .64-.26.673-.616.402-4.228-1.983-7.941-3.265-9.936-1-1.562-1.697-3.187-2.094-4.836a11.24 11.24 0 003.966-1.609c5.217-3.434 6.677-10.48 3.26-15.71zm-8.355-6.929a1.1 1.1 0 01.51.172.593.593 0 01-.111.037.686.686 0 00-.466.431.668.668 0 00-.368-.515.812.812 0 01-.098-.058c.104-.048.288-.092.533-.067zm-8.299 2.534a.674.674 0 00-.716-.29c-.396.09-.683.022-.757-.087-.121-.188.106-.833.85-1.323.363-.237.764-.378 1.104-.386.203-.008.386.046.443.133.073.109.017.402-.222.731a.684.684 0 00-.02.773l.838 1.284c-.175.104-.361.185-.534.297-.06.04-.11.085-.17.124L16.5 3.897zM23.703 24.5a9.93 9.93 0 01-8.335-4.512c-3.01-4.604-1.723-10.806 2.867-13.824A9.931 9.931 0 0132.02 9.037c3.01 4.603 1.724 10.807-2.868 13.826a9.885 9.885 0 01-5.45 1.637zm5.153-2.474a9.033 9.033 0 01-4.974 1.494 9.086 9.086 0 01-7.62-4.119c-2.056-3.143-1.96-7.303.233-10.348a.675.675 0 01.946-.153c.302.22.37.645.152.95a7.829 7.829 0 00-.199 8.807c2.34 3.577 7.144 4.583 10.716 2.233 3.57-2.347 4.566-7.17 2.228-10.748a.68.68 0 01.197-.94.676.676 0 01.937.195c2.75 4.204 1.575 9.87-2.616 12.63zm-6.48-8.668a1.826 1.826 0 00-.03 2.042 1.814 1.814 0 002.517.524 1.832 1.832 0 00.522-2.524c-.402-.615-1.17-.903-1.872-.778l-3.699-5.655a.675.675 0 00-.935-.196.683.683 0 00-.198.94l3.694 5.647zm1.746 1.429a.477.477 0 01-.644-.133.472.472 0 01.132-.643.452.452 0 01.253-.076.47.47 0 01.39.21.463.463 0 01-.13.642zM16.98 31.558c-.77 0-1.392-.626-1.392-1.396 0-.773.622-1.398 1.392-1.398.77 0 1.393.625 1.393 1.398a1.393 1.393 0 01-1.393 1.396zm-14.277-9.04H0v-4.251h2.703v-1.709l3.825 3.834-3.825 3.836v-1.71z" fill="#FF8C9D"/></svg>