<svg width="16" height="17" viewBox="0 0 16 17" fill="none" xmlns="http://www.w3.org/2000/svg"><path d="M8.375 2.294h.031c1.523 0 2.95.579 4.022 1.632a5.506 5.506 0 011.663 3.983.62.62 0 00.622.617h.003a.62.62 0 00.625-.611 6.715 6.715 0 00-2.03-4.858 6.948 6.948 0 00-4.939-1.991.62.62 0 00-.622.617.62.62 0 00.625.611zm7.623 10.794a2.308 2.308 0 00-.725-1.598c-.873-.827-1.605-1.305-2.302-1.503-.96-.273-1.85-.024-2.645.738l-.004.003-.845.825c-.526-.29-1.547-.928-2.664-2.026l-.082-.08c-1.11-1.09-1.763-2.1-2.06-2.619l.838-.83.003-.004c.776-.78 1.029-1.655.751-2.6-.202-.685-.687-1.403-1.53-2.261A2.386 2.386 0 003.109.42a2.392 2.392 0 00-1.675.596l-.018.016a.602.602 0 00-.024.023c-.918.901-1.398 2.164-1.39 3.65.012 2.525 1.424 5.413 3.777 7.725l.005.006c.443.434.945.863 1.493 1.276a.632.632 0 00.876-.113.607.607 0 00-.115-.862 13.91 13.91 0 01-1.376-1.176l-.005-.005C2.534 9.468 1.26 6.906 1.25 4.699c-.006-1.145.345-2.1 1.014-2.765l.004-.004a1.138 1.138 0 011.566.056c1.618 1.649 1.501 2.427.786 3.148L3.462 6.28a.606.606 0 00-.128.683c.03.065.741 1.61 2.513 3.351l.082.081c1.772 1.741 3.345 2.44 3.41 2.47a.633.633 0 00.695-.125l1.167-1.139c.733-.703 1.526-.818 3.204.772.44.417.464 1.093.056 1.54l-.004.004c-.67.652-1.632.996-2.784.996h-.029c-.92-.005-1.987-.253-3.084-.717a.63.63 0 00-.821.32.61.61 0 00.326.808c1.268.537 2.47.812 3.573.817h.035c1.497 0 2.769-.472 3.68-1.366a.654.654 0 00.022-.024l.017-.018a2.302 2.302 0 00.606-1.646z" fill="#FA3F5A"/><path d="M11.546 4.796a3.449 3.449 0 00-1.624-.918.626.626 0 00-.769.428.613.613 0 00.436.756c.253.069.635.173 1.073.603.42.413.532.787.607 1.034l.009.03a.624.624 0 00.776.415.613.613 0 00.422-.763l-.008-.029c-.097-.322-.276-.92-.922-1.556z" fill="#FA3F5A"/></svg>