<svg width="16" height="13" viewBox="0 0 16 13" fill="none" xmlns="http://www.w3.org/2000/svg"><path d="M.625 7.367A.614.614 0 010 6.764V2.812C0 1.482 1.121.4 2.5.4h11C14.879.4 16 1.482 16 2.812V9.78c0 1.33-1.121 2.413-2.5 2.413h-11c-1.379 0-2.5-1.082-2.5-2.413 0-.333.28-.603.625-.603s.625.27.625.603c0 .666.56 1.207 1.25 1.207h11c.69 0 1.25-.541 1.25-1.207V2.94L9.32 6.2a2.563 2.563 0 01-2.64 0L1.25 2.94v3.824c0 .333-.28.603-.625.603zM7.34 5.175a1.28 1.28 0 001.32 0l5.569-3.342a1.274 1.274 0 00-.729-.227h-11c-.272 0-.523.084-.728.227L7.34 5.175z" fill="#FA3F5A"/></svg>