<svg width="14" height="18" viewBox="0 0 14 18" fill="none" xmlns="http://www.w3.org/2000/svg"><path d="M7 3.01c-2.354 0-4.268 1.83-4.268 4.079 0 2.249 1.914 4.079 4.268 4.079a4.46 4.46 0 001.17-.156.65.65 0 00.47-.806.688.688 0 00-.843-.45c-.258.07-.526.106-.797.106-1.6 0-2.902-1.244-2.902-2.773C4.098 5.559 5.4 4.315 7 4.315S9.902 5.56 9.902 7.09c0 .272-.04.54-.121.798a.648.648 0 00.458.813.689.689 0 00.85-.438c.119-.38.18-.774.18-1.173 0-2.25-1.915-4.08-4.269-4.08z" fill="#FA3F5A"/><path d="M11.947 2.356C10.625 1.094 8.868.4 7 .4c-1.868 0-3.625.695-4.947 1.957S.003 5.296 0 7.082c.001 1.3.38 2.521 1.156 3.73.672 1.048 1.545 1.962 2.47 2.93.906.948 1.843 1.929 2.592 3.06.125.19.343.304.577.304h.41a.691.691 0 00.577-.304c.749-1.131 1.686-2.112 2.592-3.06.925-.968 1.798-1.882 2.47-2.93C13.621 9.602 14 8.383 14 7.082c-.002-1.785-.731-3.463-2.053-4.725zM9.366 12.861c-.806.844-1.635 1.711-2.366 2.71-.73-.998-1.56-1.866-2.366-2.71-1.752-1.834-3.266-3.418-3.268-5.779C1.369 4.117 3.896 1.705 7 1.705c3.103 0 5.63 2.412 5.634 5.376-.002 2.362-1.516 3.946-3.268 5.78z" fill="#FA3F5A"/></svg>