<svg width="37" height="50" viewBox="0 0 37 50" fill="none" xmlns="http://www.w3.org/2000/svg"><path d="M36.937 32.52c0-1.027-.154-2.042-.457-3.016-.19-.732-.556-1.597-1.017-2.689-1.336-3.162-3.354-7.936-3.363-14.914L33.705.82a.713.713 0 00-.171-.573.734.734 0 00-.552-.248H3.956a.734.734 0 00-.552.248.713.713 0 00-.171.574L4.838 11.9c-.01 6.978-2.027 11.752-3.363 14.914-.461 1.092-.826 1.957-1.017 2.689A10.13 10.13 0 000 32.52c0 4.043.423 8.133.838 11.172.002.04.007.078.016.115a86.36 86.36 0 00.773 4.754c.068.337.368.58.716.58H16.05a.713.713 0 00.072-.005c.004 0 .009 0 .014-.002a.71.71 0 00.054-.008l.024-.005.042-.01.029-.01a.611.611 0 00.126-.056l.03-.018.026-.017a.656.656 0 00.03-.021l.023-.02.03-.026.02-.018.03-.033.014-.016a.68.68 0 00.037-.048l.003-.006a.676.676 0 00.036-.058l.007-.012a.769.769 0 00.023-.048l.01-.027.014-.036.01-.033.008-.033.006-.035.005-.024c.33-2.432.653-7.154.768-8.916h1.854c.114 1.762.438 6.484.768 8.916l.004.024.007.035.008.033.01.033.013.036.01.027a.712.712 0 00.024.048l.006.012c.011.02.023.04.036.058l.003.005a.688.688 0 00.037.049l.014.015.031.034.02.018c.01.009.019.018.03.026l.023.02a.68.68 0 00.03.02.892.892 0 00.147.078.618.618 0 00.035.014l.028.01a.763.763 0 00.042.01l.024.005a.714.714 0 00.055.009l.014.002a.746.746 0 00.072.003h13.707a.727.727 0 00.716-.58 87.399 87.399 0 00.79-4.867c.414-3.04.837-7.13.837-11.173zM2.407 44.37h13.32c-.1 1.194-.21 2.38-.322 3.33H2.949a92.22 92.22 0 01-.542-3.33zm19.287-6.21h-6.45a.725.725 0 00-.73.72c0 .398.327.72.73.72h.835c-.05.753-.134 1.983-.237 3.33H2.208c-.382-2.917-.747-6.685-.747-10.41a8.713 8.713 0 01.407-2.644c.101-.392.274-.86.496-1.406h3.33c.402 0 .73-.322.73-.72a.725.725 0 00-.73-.72H2.965c1.38-3.275 3.332-8.133 3.332-15.18a.714.714 0 00-.007-.102L4.797 1.44h27.344l-1.494 10.308a.708.708 0 00-.007.102c0 7.047 1.952 11.905 3.332 15.18h-8.446c1.153-2.073 1.662-5.118 1.727-5.53a.721.721 0 00-.609-.821.73.73 0 00-.833.6c-.187 1.18-.898 4.382-2.024 5.751H13.15c-1.124-1.367-1.837-4.57-2.024-5.75a.73.73 0 00-.833-.601.721.721 0 00-.61.822c.065.411.575 3.456 1.728 5.53H8.613a.725.725 0 00-.73.719c0 .398.327.72.73.72h25.961c.222.547.395 1.014.495 1.406a8.714 8.714 0 01.408 2.644c0 3.724-.366 7.492-.748 10.41H21.097a311.975 311.975 0 01-.237-3.33h.835c.403 0 .73-.322.73-.72a.725.725 0 00-.73-.72zm-.161 9.54c-.112-.95-.223-2.137-.322-3.33h13.32a92.633 92.633 0 01-.542 3.33H21.533z" fill="#FF8C9D"/><path d="M18.469 22.11c.403 0 .73-.322.73-.72v-.795a.725.725 0 00-.73-.72.725.725 0 00-.73.72v.795c0 .398.327.72.73.72zm-6.45-9.54h3.225c1.291 0 2.342-1.036 2.342-2.31a.725.725 0 00-.73-.72.725.725 0 00-.73.72c0 .48-.396.87-.882.87h-3.225a.725.725 0 00-.73.72c0 .398.326.72.73.72zm0 6.36h3.225c1.291 0 2.342-1.036 2.342-2.31a.725.725 0 00-.73-.72.725.725 0 00-.73.72c0 .48-.396.87-.882.87h-3.225a.725.725 0 00-.73.72c0 .398.326.72.73.72zm9.675-6.36h3.225c.404 0 .73-.322.73-.72a.725.725 0 00-.73-.72h-3.225a.877.877 0 01-.882-.87.725.725 0 00-.73-.72.725.725 0 00-.73.72c0 1.274 1.05 2.31 2.342 2.31zm-9.675-6.36h3.225c1.291 0 2.342-1.037 2.342-2.31a.725.725 0 00-.73-.72.725.725 0 00-.73.72c0 .48-.396.87-.882.87h-3.225a.725.725 0 00-.73.72c0 .397.326.72.73.72zm9.675 0h3.225c.404 0 .73-.322.73-.72a.725.725 0 00-.73-.72h-3.225a.877.877 0 01-.882-.87.725.725 0 00-.73-.72.725.725 0 00-.73.72c0 1.273 1.05 2.31 2.342 2.31zm0 12.72h3.225c.404 0 .73-.322.73-.72a.725.725 0 00-.73-.72h-3.225a.877.877 0 01-.882-.87.725.725 0 00-.73-.72.725.725 0 00-.73.72c0 1.274 1.05 2.31 2.342 2.31z" fill="#FF8C9D"/></svg>