<svg width="42" height="50" viewBox="0 0 42 50" fill="none" xmlns="http://www.w3.org/2000/svg"><path d="M0 36.038h1.462V49.14H0V36.038zM15.592 1.97c0 1.731-1.115 3.278-2.774 3.85L5.71 8.27C2.295 9.448 0 12.633 0 16.197v18.401h1.462V16.197c0-2.953 1.901-5.592 4.73-6.568l7.11-2.45c2.244-.774 3.751-2.867 3.751-5.209V0h-1.461v1.97z" fill="#FF8C9D"/><path d="M6.848 27.647l1.404-.402-.49-1.655a20.498 20.498 0 01-.843-5.819H5.457c0 2.106.303 4.2.902 6.222l.49 1.654zm3.607 9.617c0-1.708-.246-3.406-.732-5.047l-1.062-3.59-1.404.403 1.063 3.59c.447 1.51.673 3.073.673 4.645 0 2.98-.816 5.91-2.36 8.473a6.592 6.592 0 00-.949 3.402h1.462c0-.938.257-1.86.743-2.667.184-.306.357-.617.522-.932h3.04v-1.44H9.085c.196-.472.374-.952.529-1.44h3.59v-1.439h-3.2c.296-1.294.45-2.62.45-3.958zM20.27 18.62h1.46v22.074h-1.46V18.62zm8.429-11.441l4.992 1.72.483-1.358-4.992-1.721c-1.659-.572-2.774-2.119-2.774-3.85V0h-1.461v1.97c0 2.342 1.508 4.435 3.752 5.209zM36.29 8.27l-.737-.254-.483 1.36.737.253c2.83.976 4.731 3.615 4.731 6.568V49.14H42V16.197c0-3.564-2.295-6.75-5.71-7.927z" fill="#FF8C9D"/><path d="M34.65 23.946h-4.198v1.44h3.844l-.058.204-.366 1.236h-5.076v1.44h4.65l-1.169 3.951a17.782 17.782 0 00-.42 8.36l1.437-.264a16.361 16.361 0 01.387-7.693l1.96-6.628c.599-2.021.902-4.115.902-6.22H35.08a20.52 20.52 0 01-.43 4.174zm-1.042 17.711l-1.41.381a17.9 17.9 0 001.913 4.435c.486.807.743 1.73.743 2.667h1.462a6.592 6.592 0 00-.948-3.402 16.476 16.476 0 01-1.76-4.08zM13.545 12.778c.026 1.367-.145 5.229-1.22 6.661l1.174.856c1.565-2.082 1.518-6.99 1.508-7.544l-1.462.027zm14.91 0l-1.462-.026c-.01.552-.057 5.461 1.508 7.543l1.175-.856c-1.076-1.432-1.247-5.294-1.221-6.66zM20.27 45.013h1.46v1.44h-1.46v-1.44zm0-2.879h1.46v1.44h-1.46v-1.44zm5.602-15.308h1.462v1.44h-1.462v-1.44z" fill="#FF8C9D"/></svg>