<svg width="50" height="50" viewBox="0 0 50 50" fill="none" xmlns="http://www.w3.org/2000/svg"><path d="M11.986 42.986a.993.993 0 00.69-.281.955.955 0 00.286-.679c0-.252-.103-.5-.286-.678a.993.993 0 00-1.38 0 .96.96 0 00-.287.678c0 .253.105.5.286.679a.992.992 0 00.69.281z" fill="#FF8C9D"/><path d="M49.02 47.22h-4.824a6.192 6.192 0 001.247-1.9 6.017 6.017 0 00-.056-4.818 6.176 6.176 0 00-3.564-3.306l-9.372-3.418v-3.484a6.082 6.082 0 002.93.65 6.052 6.052 0 003.695-1.415 5.843 5.843 0 002.077-4.26 5.83 5.83 0 00-1.79-4.385l-4.913-4.728a6.586 6.586 0 00-4.59-1.841h-.371a5.963 5.963 0 001.66-4.123v-.856c0-1.864-.864-3.532-2.218-4.642v-.831c0-2.13-1.763-3.863-3.93-3.863-2.168 0-3.932 1.733-3.932 3.864v.816l.001.014c-1.354 1.11-2.217 2.778-2.217 4.642v.856a5.96 5.96 0 001.659 4.123h-.375a6.584 6.584 0 00-4.59 1.841l-4.913 4.728a5.83 5.83 0 00-1.79 4.385 5.845 5.845 0 002.077 4.26 6.053 6.053 0 006.624.765v3.486l-9.367 3.416a6.175 6.175 0 00-3.565 3.306 6.017 6.017 0 00-.055 4.817c.304.726.73 1.364 1.246 1.902H.977c-.54 0-.977.43-.977.96s.438.96.977.96H49.02c.54 0 .977-.43.977-.96s-.438-.96-.977-.96zM19.499 33.487v-4.528l4.968-3.667a3.78 3.78 0 00.532-.476 3.8 3.8 0 00.533.476l4.967 3.667v4.528h-11zM25 1.92c1.004 0 1.833.738 1.96 1.69a6.22 6.22 0 00-3.919 0 1.968 1.968 0 011.96-1.69zm-4.194 7.416c0-2.273 1.881-4.123 4.194-4.123 2.313 0 4.195 1.85 4.195 4.123v.856c0 2.274-1.882 4.123-4.195 4.123-2.313 0-4.194-1.85-4.194-4.123v-.856zm-8.613 18.737a3.882 3.882 0 01-1.397-2.867A3.873 3.873 0 0112 22.256l4.912-4.729a4.625 4.625 0 013.225-1.293h9.721c1.213 0 2.358.46 3.224 1.293l4.913 4.729a3.871 3.871 0 011.205 2.95 3.88 3.88 0 01-1.398 2.867 4.099 4.099 0 01-5.032.162l-6.067-4.48a1.786 1.786 0 01-.727-1.305 3.519 3.519 0 000-.248c.021-.312.123-.623.317-.9l.492-.706 8.102 5.539a.987.987 0 001.36-.24.95.95 0 00-.244-1.336l-3.553-2.428v-1.173c0-.53-.437-.96-.976-.96a.971.971 0 00-.963.806l-3.417-2.335a.99.99 0 00-1.364.244l-.733 1.051-.733-1.05a.987.987 0 00-1.363-.245l-3.417 2.335a.972.972 0 00-.963-.805c-.54 0-.977.43-.977.96v1.172l-3.552 2.428a.95.95 0 00-.244 1.336.988.988 0 001.36.24l8.101-5.54.493.707c.193.276.295.587.316.9a3.553 3.553 0 00.001.248c-.037.5-.287.981-.727 1.306l-6.068 4.479a4.099 4.099 0 01-5.032-.162zM6.365 44.59a4.142 4.142 0 01.038-3.317 4.253 4.253 0 012.454-2.277l9.845-3.59h12.597l9.845 3.59a4.253 4.253 0 012.454 2.277 4.144 4.144 0 01.038 3.317 4.3 4.3 0 01-3.827 2.632h-.286c-.462-.014-.93-.1-1.388-.268L29.35 43.74h1.304a.98.98 0 00.869-.52.946.946 0 00-.073-.997l-.965-1.329 7.26 2.055a.974.974 0 001.209-.657.958.958 0 00-.669-1.188l-11.01-3.116a6.587 6.587 0 00-4.584-.26l-7.482 2.302a.957.957 0 00-.64 1.202.98.98 0 001.223.63l7.482-2.302a4.604 4.604 0 013.296.222 4.52 4.52 0 011.758 1.447l.43.592h-2.683a.996.996 0 00-.34.06l-13.87 5.072a4.44 4.44 0 01-1.392.268h-.278a4.298 4.298 0 01-3.83-2.632zM25 44.198l8.267 3.023H16.734L25 44.198z" fill="#FF8C9D"/></svg>