<svg width="50" height="50" viewBox="0 0 50 50" fill="none" xmlns="http://www.w3.org/2000/svg"><path d="M49.268 47.7H20.823a2.4 2.4 0 00-1.561-1.552l-2.459-.792.127-.357.003-.01a.733.733 0 00.018-.063c0-.005.002-.009.003-.013l.001-.004 3.61-17.078c3.17-1.142 5.917-2.294 8.001-5.073.562-.75-.617-1.604-1.179-.855a11.965 11.965 0 01-1.308 1.47l-3.55-3.567a7.96 7.96 0 001.469-2.396c1.838.203 3.145-1.881 2.104-3.405.888.2 1.845.132 2.693-.196.81 1.559.646 3.633.11 5.24-.288.86 1.094 1.34 1.391.45a9.74 9.74 0 00.502-2.759L45.99 5.393c.33-.299.377-.635.14-1.01-1.247-1.608-3.595-1.92-5.233-.694l-9.346 6.977a4.42 4.42 0 00.117-1.026l-.01-2.278c.522-.54.706-1.32.63-2.047-.261-2.495-2.689-3.808-4.952-3.817-.185 0-.369.01-.552.03A3.388 3.388 0 0023.939 0c-.883 0-1.776.365-2.398.98-1.641 1.622-1.094 4.455 1.033 5.371l.006 3.323c.003.594.126 1.19.364 1.738l-10.5-8.18a3.772 3.772 0 00-2.785-.784l-.67-.88c-.833-1.092-2.622-.475-2.622.858v8.227c0 .931 1.465.931 1.465 0V7.485H8.85l1.642 8.868a.717.717 0 00.222.398l5.614 5.127c-1.216.418-2.328 1.162-2.914 2.325l-4.787-5.325a3.086 3.086 0 01-.795-2.065v-2.704c0-.931-1.465-.931-1.465 0v2.704A4.51 4.51 0 007.53 19.83l5.402 6.01a9.625 9.625 0 00-.068 1.46v19.61c-.006.274.04.54.13.79H.732a.726.726 0 00-.732.72c0 .397.328.72.732.72h48.536a.726.726 0 00.732-.72.726.726 0 00-.732-.72zm-30.462-.184a.97.97 0 01.33.183l-4.088-.007a.711.711 0 01-.509-.21.736.736 0 01-.21-.544V45.48l.88.002c-.116.383-.029.868.43 1.015l3.167 1.02zm3.272-21.739L19.75 21.98a10.514 10.514 0 001.736-1.163l3.478 3.494c-.84.61-1.807 1.1-2.886 1.466zm5.054-13.097c-1.399 0-2.665-.962-2.998-2.3 1.618-1.198 3.19-2.212 5.314-2.212.277 0 .525-.025.748-.066l.007 1.544c.006 1.645-1.406 3.028-3.071 3.034zm14.651-7.845a2.308 2.308 0 012.64-.08l-13.737 10.26-.021-.13a6.573 6.573 0 00-.424-1.432l11.542-8.618zM27.318 2.938h.012c1.61.006 3.328.875 3.5 2.524.098.929-.622 1.266-1.447 1.266-1.975 0-3.781.732-5.326 1.906-.008-.925-.029-1.85-.005-2.775.153-1.637 1.56-2.921 3.266-2.921zm-5.294.385a1.846 1.846 0 01.555-1.328c.72-.71 1.943-.73 2.682-.036a4.707 4.707 0 00-2.485 2.85 1.86 1.86 0 01-.752-1.486zm2.713 11.323c.773.618-.201 1.785-.977 1.165L10.608 5.54c.015-.547.018-1.12-.137-1.65a2.3 2.3 0 011.06.466l13.206 10.29zM7.832 6.045V2.452l.904 1.186c.262.344.407.77.407 1.2v.75c0 .252-.21.457-.466.457h-.845zm4.058 9.814l-1.62-8.743 12.396 9.68c-.785 2.163-2.733 3.665-4.851 4.475l-5.925-5.412zm4.185 7.681l2.337-.954 2.253 3.676-.987.355a.723.723 0 00-.465.53l-3.57 16.895-1.314-.002V27.279c-.036-1.719.245-2.945 1.746-3.739z" fill="#FF8C9D"/></svg>