<svg width="49" height="50" viewBox="0 0 49 50" fill="none" xmlns="http://www.w3.org/2000/svg"><path d="M8.715 18.602a2.759 2.759 0 00-2.18-.083 5.919 5.919 0 01-1.843.408l.072 1.576a7.524 7.524 0 002.338-.511c.305-.117.64-.104.94.037.312.147.545.407.656.733a44.747 44.747 0 012.357 14.344c0 4.373-.64 8.716-1.9 12.904l-.203.677 1.516.453.203-.677a46.33 46.33 0 001.965-13.357c0-5.059-.82-10.053-2.44-14.847a2.849 2.849 0 00-1.481-1.657zm31.57 0a2.847 2.847 0 00-1.481 1.657 46.299 46.299 0 00-2.44 14.847c0 4.527.66 9.022 1.965 13.358l.203.676 1.516-.453-.204-.677a44.773 44.773 0 01-1.898-12.904c0-4.887.793-9.713 2.357-14.343a1.24 1.24 0 01.656-.733c.3-.142.633-.156.94-.038a7.524 7.524 0 002.338.512l.072-1.577a5.949 5.949 0 01-1.843-.407 2.766 2.766 0 00-2.181.082zM20.833 2.696l.114-.206c.255-.465.39-.991.39-1.52V0h-1.582v.97c0 .265-.068.53-.196.763l-.114.207c-.18.329-.496.593-.89.745-.733.284-1.452.622-2.144 1.009a4.719 4.719 0 00-2.193-.538 4.704 4.704 0 00-4.631 3.73c-2.157-.164-4.686.91-6.679 2.897-1.7 1.696-2.76 3.799-2.908 5.77l1.577.117c.118-1.576 1.035-3.36 2.45-4.772 1.856-1.85 4.289-2.79 6.05-2.34a.792.792 0 00.987-.745 3.137 3.137 0 013.154-3.08c.624 0 1.23.183 1.75.53a.791.791 0 00.845.02c.74-.44 1.518-.82 2.314-1.127.741-.286 1.347-.804 1.706-1.46zm25.259 7.087c-1.993-1.989-4.53-3.064-6.679-2.897a4.704 4.704 0 00-4.631-3.73c-.768 0-1.517.184-2.193.537a16.931 16.931 0 00-2.148-1.01 1.683 1.683 0 01-.889-.745l-.112-.206a1.588 1.588 0 01-.195-.76V0h-1.581v.972c0 .528.133 1.052.386 1.514l.113.205c.358.656.965 1.176 1.707 1.463.798.308 1.578.688 2.318 1.129a.79.79 0 00.844-.021 3.154 3.154 0 011.75-.529 3.137 3.137 0 013.154 3.08.79.79 0 00.987.745c1.76-.451 4.194.49 6.05 2.34 1.416 1.413 2.332 3.197 2.45 4.772L49 15.553c-.147-1.97-1.207-4.074-2.908-5.77zm-18.428 6.784h.395c1.09 0 1.977-.885 1.977-1.972a1.977 1.977 0 00-1.977-1.972h-.395v-.79a1.45 1.45 0 00-.024-.19l-.791-3.156a.79.79 0 00-.767-.598h-3.164a.79.79 0 00-.767.597l-.79 3.156a1.48 1.48 0 00-.025.192v.789h-.395c-1.09 0-1.977.885-1.977 1.972s.887 1.972 1.977 1.972h.395v1.578h-.395c-1.09 0-1.977.885-1.977 1.972s.887 1.973 1.977 1.973h.395v1.577h-.395c-1.09 0-1.977.885-1.977 1.973 0 1.087.887 1.972 1.977 1.972h.395v1.578h-.395c-1.09 0-1.977.885-1.977 1.972s.887 1.972 1.977 1.972h.395v1.578h-.395c-1.09 0-1.977.885-1.977 1.972s.887 1.973 1.977 1.973h.395v1.577h-.395c-1.09 0-1.977.886-1.977 1.973 0 1.087.887 1.972 1.977 1.972h.395v.789a.79.79 0 00.791.789h4.746a.79.79 0 00.79-.79v-.788h.396c1.09 0 1.977-.885 1.977-1.972a1.978 1.978 0 00-1.977-1.973h-.395v-1.577h.395c1.09 0 1.977-.886 1.977-1.973a1.978 1.978 0 00-1.977-1.972h-.395v-1.578h.395c1.09 0 1.977-.885 1.977-1.972a1.978 1.978 0 00-1.977-1.972h-.395v-1.578h.395c1.09 0 1.977-.885 1.977-1.972a1.978 1.978 0 00-1.977-1.973h-.395V22.09h.395c1.09 0 1.977-.885 1.977-1.972a1.978 1.978 0 00-1.977-1.972h-.395v-1.578zm-4.128-7.1h1.928l.396 1.578h-2.72l.396-1.578zm-2.595 5.522a.395.395 0 110-.789h1.186a.79.79 0 00.791-.788v-.79h3.164v.79a.79.79 0 00.79.788h1.187a.395.395 0 110 .79h-1.186a.79.79 0 00-.791.788v.79h-.791v-1.579h-1.582v1.578h-.79v-.789a.79.79 0 00-.792-.789h-1.186zm7.118 26.823a.395.395 0 110 .79h-1.186a.79.79 0 00-.791.788v.789h-.791V42.6h-1.582v1.578h-.79v-.789a.79.79 0 00-.792-.789h-1.186a.395.395 0 110-.789h1.186a.79.79 0 00.791-.789v-.789h3.164v.79a.79.79 0 00.79.788h1.187zm0-5.522a.395.395 0 110 .789h-1.186a.79.79 0 00-.791.789v.789h-.791v-1.578h-1.582v1.578h-.79v-.79a.79.79 0 00-.792-.788h-1.186a.395.395 0 110-.79h1.186a.79.79 0 00.791-.788v-.789h3.164v.789a.79.79 0 00.79.789h1.187zm0-5.523a.395.395 0 110 .79h-1.186a.79.79 0 00-.791.788v.79h-.791v-1.579h-1.582v1.578h-.79v-.789a.79.79 0 00-.792-.789h-1.186a.395.395 0 110-.789h1.186a.79.79 0 00.791-.788v-.79h3.164v.79a.79.79 0 00.79.788h1.187zm0-5.522a.395.395 0 110 .789h-1.186a.79.79 0 00-.791.789v.789h-.791v-1.578h-1.582v1.578h-.79v-.79a.79.79 0 00-.792-.788h-1.186a.395.395 0 110-.789h1.186a.79.79 0 00.791-.789v-.789h3.164v.79a.79.79 0 00.79.788h1.187zm0-5.522a.395.395 0 110 .789h-1.186a.79.79 0 00-.791.789v.789h-.791v-1.578h-1.582v1.578h-.79v-.79a.79.79 0 00-.792-.788h-1.186a.395.395 0 110-.79h1.186a.79.79 0 00.791-.788v-.79h3.164v.79a.79.79 0 00.79.789h1.187z" fill="#FF8C9D"/></svg>