<svg width="45" height="50" viewBox="0 0 45 50" fill="none" xmlns="http://www.w3.org/2000/svg"><path d="M44.347 13.664c-1.466-4.276-7.04-6.019-11.109-7.29a18.162 18.162 0 01-3.536-1.322c-1.99-1.291-1.36-3.926-1.333-4.034a.802.802 0 00-.153-.703.85.85 0 00-.664-.315H17.45a.85.85 0 00-.664.315.802.802 0 00-.152.703c.006.027.673 2.73-1.335 4.034a18.163 18.163 0 01-3.536 1.322C7.692 7.645 2.119 9.388.652 13.663-1.11 18.8.472 36.868 8.23 45.456c-.106.981-.118 1.97-.035 2.954.047.415.406.73.835.73h26.942c.43 0 .79-.314.837-.73a15.42 15.42 0 00-.035-2.953c7.754-8.588 9.337-26.655 7.573-31.794zM36.425 43.28a16.785 16.785 0 00-.497-1.77 19.051 19.051 0 01-.016-13.36 52.2 52.2 0 002.569-8.33.805.805 0 00-.257-.797.86.86 0 00-.841-.164.826.826 0 00-.552.64 51.555 51.555 0 01-2.483 8.046 20.636 20.636 0 00-.016 14.486 16.39 16.39 0 01.842 5.475H9.83a16.365 16.365 0 01.842-5.475 20.637 20.637 0 00-.016-14.486 51.559 51.559 0 01-2.486-8.053.842.842 0 00-.985-.615.82.82 0 00-.665.936 52.204 52.204 0 002.569 8.335 19.051 19.051 0 01-.016 13.36 16.81 16.81 0 00-.497 1.77C1.794 34.502.915 18.081 2.25 14.18c1.198-3.49 6.302-5.085 10.03-6.25a18.171 18.171 0 003.957-1.519c1.565-1.086 2.4-2.915 2.177-4.773h8.175c-.222 1.86.613 3.69 2.181 4.776a18.171 18.171 0 003.957 1.519c3.727 1.165 8.831 2.762 10.029 6.25 1.336 3.902.453 20.323-6.33 29.097z" fill="#FF8C9D"/><path d="M14.081 23.751a.834.834 0 00.205-.024c3.397-.827 4.847-2.534 4.847-5.709v-5.733a.83.83 0 00-.842-.819.83.83 0 00-.842.82v5.732c0 2.06-.584 3.393-3.571 4.12a.82.82 0 00-.631.894c.052.41.41.719.834.72zm16.635-.024a.836.836 0 00.204.024c.425 0 .783-.31.834-.72a.82.82 0 00-.63-.893c-2.987-.727-3.572-2.06-3.572-4.12v-5.733a.83.83 0 00-.841-.819.83.83 0 00-.842.82v5.732c0 3.175 1.45 4.882 4.848 5.709zm-5.689 9.033c-.005-1.037-.679-1.96-1.684-2.306V17.199a.83.83 0 00-.842-.819.83.83 0 00-.842.82v13.254c-1.208.418-1.9 1.652-1.61 2.867.29 1.215 1.472 2.024 2.746 1.88 1.274-.143 2.234-1.194 2.232-2.44zm-2.526.82a.83.83 0 01-.842-.82.83.83 0 01.842-.819.83.83 0 01.842.82.83.83 0 01-.842.818zm-4.167-4.874a5.655 5.655 0 00-1.726 4.054c0 1.52.62 2.98 1.726 4.054.33.31.855.306 1.18-.01a.803.803 0 00.01-1.148 4.039 4.039 0 01-1.233-2.896 4.04 4.04 0 011.234-2.896.803.803 0 00-.01-1.148.859.859 0 00-1.181-.01zm7.143 8.108c.329.32.862.32 1.19 0a5.655 5.655 0 001.727-4.054c0-1.52-.621-2.979-1.726-4.054a.859.859 0 00-1.18.01.803.803 0 00-.01 1.148 4.04 4.04 0 011.232 2.896 4.04 4.04 0 01-1.233 2.896.803.803 0 000 1.158z" fill="#FF8C9D"/><path d="M16.547 39.37c.34 0 .648-.2.778-.505a.803.803 0 00-.182-.893 7.238 7.238 0 010-10.424.804.804 0 00.23-.796.83.83 0 00-.602-.585.858.858 0 00-.819.223 8.846 8.846 0 000 12.74.844.844 0 00.595.24zm11.312-12.98a.803.803 0 000 1.158 7.238 7.238 0 010 10.424.805.805 0 00-.23.797.83.83 0 00.602.585.858.858 0 00.818-.224 8.846 8.846 0 000-12.74.859.859 0 00-1.19 0zm-7.246 12.947l-3.368.819a.835.835 0 00-.581.499.8.8 0 00.085.75l1.02 1.49-2.207.537a.82.82 0 00-.631.894c.051.41.41.719.834.72a.834.834 0 00.205-.025l3.368-.82a.835.835 0 00.581-.498.8.8 0 00-.085-.75l-1.02-1.49 2.207-.537a.833.833 0 00.623-.568.803.803 0 00-.206-.805.858.858 0 00-.824-.216zm8.827 4.095l-2.208-.537 1.02-1.49a.8.8 0 00.086-.75.835.835 0 00-.582-.5l-3.368-.818a.858.858 0 00-.823.216.803.803 0 00-.207.805.833.833 0 00.623.568l2.208.537-1.02 1.49a.8.8 0 00-.086.75.835.835 0 00.582.499l3.368.819a.837.837 0 00.203.024.833.833 0 00.834-.72.82.82 0 00-.63-.893z" fill="#FF8C9D"/></svg>