<svg width="32" height="36" viewBox="0 0 32 36" fill="none" xmlns="http://www.w3.org/2000/svg"><path d="M15.2 35c.2.1.4 0 .5-.1.1.1.3.2.5.1 1.1-.4 2.1-.6 3.2-.8 1.1-.3 2.2-.6 3.2-.9 1.9-.6 3.9-1.5 5.5-2.8 1.5-1.3 2.3-3.2 2.7-5.1.5-2.2.6-4.4.6-6.6 0-.5-.7-.5-.9-.2-.5 1-.9 1.9-1.6 2.7-.7.8-1.5 1.4-2.4 1.8-1.6.9-3.4 1.4-5.1 2.1-1.7.7-3.4 1.7-4.5 3.3-.4.6-.9 1.3-1.1 2-.3-.7-.7-1.4-1.1-2-.6-.9-1.5-1.5-2.3-2.1-.1.3-.2.6-.4.9.5.4 1 .7 1.5 1.2.7.7 1.4 1.7 1.6 2.7.2.6.2 1.2.1 1.8-.2-.2-.3-.4-.5-.5-.6-.7-1.3-1.2-2.1-1.7-.5-.4-1.1-.8-1.6-1.1l-.3.9c.3.2.5.3.8.5.8.5 1.6 1.1 2.2 1.7.3.3.8.8 1.1 1.2-.7-.2-1.5-.4-2.2-.5-.9-.2-1.8-.5-2.7-.8l-.3.9c.9.3 1.7.5 2.6.7.8.1 1.9.3 3 .7zm15-12.5c-.1.8-.2 1.7-.4 2.5-.4 1.9-1.1 3.7-2.6 4.9-1.5 1.2-3.4 2-5.2 2.5-1 .3-2 .6-3.1.9-.7.2-1.5.3-2.2.5.3-.5.7-.9 1.1-1.2.7-.7 1.5-1.2 2.2-1.7.8-.6 1.6-1 2.4-1.4.8-.4 1.6-.7 2.4-1.2 1.5-.8 2.8-2 3.8-3.3.5-.7 1-1.4 1.4-2.2.1-.1.2-.2.2-.3zm-13.8 8.6c.3-1 1-1.9 1.6-2.7 1.2-1.3 2.9-2.1 4.5-2.7 1.7-.7 3.4-1.2 5-2.1.7-.4 1.4-1 1.9-1.6 0 .1-.1.2-.1.3-.4.8-.9 1.6-1.4 2.2-1.1 1.4-2.5 2.4-4 3.3-.8.4-1.7.8-2.5 1.2-.9.5-1.7 1-2.5 1.6-.7.5-1.4 1.1-2.1 1.7-.1.2-.3.3-.5.5-.1-.5-.1-1.1.1-1.7zM4.1 29.9c-1.5-1.2-2.3-3.1-2.6-4.9-.2-.8-.3-1.7-.4-2.5 0 .1.1.2.2.3.4.8.9 1.5 1.4 2.2 1.1 1.3 2.4 2.4 3.8 3.3l2.4 1.2c.1 0 .1.1.2.1l.3-.9c-.6-.3-1.3-.6-1.9-.9-1.5-.8-2.9-1.9-4-3.3-.6-.7-1.1-1.4-1.4-2.2 0-.1-.1-.2-.1-.3.6.6 1.2 1.1 1.9 1.6 1.6.9 3.3 1.5 5 2.1.5.2 1.1.4 1.6.7l.3-.9c-.2-.1-.4-.2-.7-.3-1.7-.7-3.5-1.2-5.1-2.1-1-.5-1.8-1.1-2.5-1.9-.7-.8-1.1-1.8-1.6-2.7-.2-.4-.9-.4-.9.1 0 2.2.1 4.5.6 6.6.4 1.9 1.2 3.8 2.7 5.1 1.3 1.1 2.9 1.9 4.5 2.5.1-.2.2-.5.3-.8-1.4-.5-2.8-1.1-4-2.1z" fill="#FF8C9D"/><path d="M9.3 32.5c-.4-.1-.8-.3-1.2-.4l-.3.9c.3.1.6.2 1 .3.2.1.4.1.6.2l.3-.9c-.1-.1-.2-.1-.4-.1zm2.5-5.3c.1-.3.2-.6.4-.9-.5-.3-1-.6-1.5-.8l-.3.9c.5.2 1 .4 1.4.8zm-2.4 1.5c-.1.3-.2.5-.4.8.5.2 1 .5 1.5.8l.3-.9c-.3-.2-.6-.4-.9-.5-.1 0-.3-.1-.5-.2zm-1.7-7.8c-1.3-2.2-1-4.8-.3-7.1.8-2.5 2.3-4.8 3.8-6.9 1.4-2 2.9-3.8 4.4-5.7 1.3 2 2.8 3.8 4.2 5.7.2-.3.3-.6.5-.9-1.4-1.9-2.9-3.8-4.2-5.8-.2-.3-.5-.2-.7 0-.1 0-.2.1-.3.2-1.7 2.2-3.4 4.3-5 6.5-1.5 2.1-2.8 4.3-3.6 6.8-.7 2.3-.9 4.8.1 7.1.9 1.9 2.5 3.3 4.4 4.2.1-.3.3-.6.4-.9-1.6-.7-2.9-1.8-3.7-3.2zm15.9-7.4c.7 2.3.6 4.9-.6 7.1-1 1.9-2.7 3.3-4.7 3.9-1.7.6-3.6.6-5.4.1-.1.3-.3.6-.4.9 3.3.9 7 .3 9.5-2.1 1.7-1.6 2.7-3.8 2.9-6.1.2-2.5-.6-4.9-1.8-7.1-.5-.9-1.1-1.8-1.7-2.7-.2.3-.3.6-.5.9 1.1 1.6 2.1 3.3 2.7 5.1z" fill="#FF8C9D"/><path d="M12.5 25.5c.1-.3.3-.6.4-.9-.5-.1-1.1-.3-1.6-.6-.1.3-.3.6-.4.9.6.3 1.1.5 1.6.6zm8.4-17.1c.2-.3.3-.6.5-.9-.4-.5-.7-1-1.1-1.5-.2.3-.3.6-.5.9.4.5.7 1 1.1 1.5z" fill="#FF8C9D"/></svg>