<svg width="25" height="37" viewBox="0 0 25 37" fill="none" xmlns="http://www.w3.org/2000/svg"><path d="M6.679 22.224c.3 1.179.5 2.457.7 3.636.4 2.162 1.3 4.128 3.3 5.405 1.7.983 3.9 1.278 5.8.393 1.7-.884 2.8-2.555 2.9-4.422.1-2.064-1.3-4.03-3.3-4.423-2.1-.393-4.6.983-5.2 3.047-.3.884.1 1.867.8 2.457.6.491 1.6.688 2.4.59.7-.099 1.5-.393 1.7-1.18.2-.884-.7-1.474-1.3-1.965-.4-.295-1 .294-.6.688.3.294.7.491.9.884.3.393-.3.59-.6.688-.9.197-1.9 0-2.4-.786-.7-.983.2-2.26 1-2.85.9-.688 2.2-.983 3.3-.688 1 .196 1.8 1.18 2.1 2.064.3.884.3 1.965-.1 2.85-.7 1.867-2.6 2.85-4.6 2.752-2.1-.099-4-1.573-4.8-3.44-.5-1.18-.7-2.457-.9-3.637-.2-1.179-.5-2.358-.8-3.538-.1-.196-.1-.393-.2-.688h-.9c.4.688.6 1.376.8 2.163zm12.4-.885c0 .491.6.491.8.098.1 0 .2-.098.2-.295 0-.393.1-.688.1-1.08h-1.1v1.277zm-3.7-1.376h-.7c.1.197.5.197.7 0zm-4.5 0h-.7c.2.197.6.197.7 0zm-8.6-1.573c-.3-.59-.6-1.08-.9-1.572-.3-.491-.7-1.18-.5-1.67.2-.492.9-.394 1.3-.296.6.099 1.1.492 1.5.885.8.688 1.3 1.67 1.7 2.654h1.2c-.2-2.457-.2-4.914-.2-7.273 0-1.278.1-2.654.4-3.931.2-.885.7-2.26 1.7-2.654.9-.295 1.4 1.081 1.5 1.77.3 1.277.3 2.554.3 3.832 0 1.376-.1 2.654-.2 4.03-.1 1.376 0 2.751 0 4.029h.8c0-.884 0-1.67-.1-2.555 0-1.376.1-2.654.2-4.03a27.1 27.1 0 000-4.03c0-.294-.1-.589-.1-.884 0-.983.1-1.965.3-2.948.2-.885.7-1.966 1.6-2.457.9-.393 1.3.688 1.4 1.277.3.983.2 2.163.2 3.145 0 2.26.2 4.62.2 6.88 0 1.867-.1 3.735-.1 5.504h1c.2-2.162 0-4.423 0-6.683 0-1.278.1-2.654.4-3.932.2-.884.4-1.769.9-2.555.2-.295.5-.491.8-.393.4.098.7.491.9.885.5.884.7 1.965.8 2.948.2 1.278.1 2.654 0 3.931-.2 1.278-.4 2.654-.3 3.931v1.868h1.1c0-.393-.1-.787-.1-1.18 0-1.277.3-2.457.9-3.636.4-.688 1.6-2.26 2.5-1.572.4.294.5.982.5 1.376 0 .687 0 1.375-.1 1.965-.1 1.081-.2 2.064-.3 3.145.3 0 .6 0 .8.098 0-.491 0-.983.1-1.376.1-1.277.4-2.555.3-3.832 0-.983-.5-2.064-1.6-2.261-.9-.098-1.7.491-2.3.983-.4.393-.7.884-1 1.376 0-.197 0-.295.1-.492.3-2.358.3-4.815-.5-7.076-.3-.786-.8-1.572-1.6-1.867-.8-.295-1.6.196-2 .884-.3.492-.5 1.081-.7 1.573 0-.885 0-1.867-.1-2.752-.1-.885-.2-1.867-.7-2.654-.6-.884-1.6-.884-2.4-.393-.5.983-1 2.064-1.3 3.047-.1.393-.2.786-.3 1.278-.4-.787-1.3-1.18-2.1-.885-1 .295-1.6 1.474-1.9 2.26-.5 1.18-.6 2.36-.7 3.637-.1 1.376-.1 2.653-.1 4.03 0 .982 0 2.063.1 3.046a6.655 6.655 0 00-1.9-2.162c-.8-.59-1.9-.983-2.8-.59-1.1.492-1 1.671-.6 2.556.3.688.7 1.277 1.1 1.965.3 0 .6 0 1-.098-.1 0-.1 0-.1-.098z" fill="#FF8C9D"/><path d="M2.779 27.629c.2 1.278.7 2.359 1.4 3.44.7.983 1.5 1.867 2.4 2.653.8.787 1.8 1.475 2.8 1.868 1.1.491 2.4.491 3.6.491 1.3 0 2.6-.197 3.9-.491 2.3-.393 4.4-1.376 5.9-3.145 1.5-1.966 1.7-4.325 1.8-6.683.1-1.77 0-3.538.1-5.308-.3 0-.6 0-.8-.098v3.44c0 2.457.1 5.209-1.1 7.371-1.2 2.064-3.5 3.047-5.7 3.538-1.3.295-2.6.393-3.9.492-1.3 0-2.6-.099-3.7-.59-1-.492-1.9-1.278-2.7-2.162-.9-.885-1.7-1.77-2.2-2.949-1.2-2.358-.7-5.012-1-7.567-.3-.59-.5-1.18-.6-1.77-.3 0-.6 0-.9.099.4 1.18.4 2.457.4 3.636.1 1.278.1 2.556.3 3.735zm7.5-7.666h.7s.1-.098.1-.197c.1-.49.1-.982.1-1.474h-.8c0 .492 0 .885-.1 1.376-.2.099-.1.197 0 .295zm-4.2.098h.9l-.3-.884c0-.197 0-.492-.1-.688h-1.2c.1.098.1.196.2.393.2.295.3.688.5 1.18zm17.7-.491v.688c.3 0 .6 0 .8.098 0-.59 0-1.08.1-1.67-.3 0-.6 0-.8-.099-.1.393-.1.688-.1.983zm-9.1.393h.7s.1-.098.1-.197c.1-.49.2-.982.2-1.474h-1v1.474c-.1.099 0 .099 0 .197zm4.4.098h1.1c0-.294 0-.491.1-.786v-.884h-1.1c-.1.59-.1 1.08-.1 1.67z" fill="#FF8C9D"/></svg>