<svg width="40" height="40" viewBox="0 0 40 40" fill="none" xmlns="http://www.w3.org/2000/svg"><path d="M20 0C8.972 0 0 8.972 0 20c0 4.83 1.721 9.265 4.583 12.725.007.01.008.023.016.032a19.994 19.994 0 007.552 5.636l.099.043c.234.099.47.19.708.28l.281.105a20.03 20.03 0 001.57.491c.163.044.327.085.491.124a18.015 18.015 0 001.065.225c.152.028.303.058.456.082.21.034.422.061.634.088.136.018.272.038.41.052.24.026.482.044.724.06.113.008.225.02.338.026a19.023 19.023 0 002.147.002c.113-.006.225-.018.338-.026.243-.018.485-.035.725-.06.137-.015.273-.035.41-.052.212-.028.423-.054.633-.088.153-.025.305-.054.457-.082.188-.035.377-.07.564-.11a21.527 21.527 0 001.943-.522c.207-.066.413-.136.618-.209.094-.034.187-.07.281-.105.238-.09.474-.182.708-.28l.1-.043a20 20 0 007.552-5.635c.008-.01.008-.023.016-.032A19.919 19.919 0 0040 20C40 8.972 31.028 0 20 0zm8.105 36.813l-.03.015c-.238.115-.48.223-.724.328l-.165.07a18.012 18.012 0 01-.92.355 19.188 19.188 0 01-1.47.458c-.147.039-.297.075-.446.11-.157.038-.313.076-.47.109-.173.037-.347.068-.52.1-.141.025-.281.053-.423.075-.196.031-.393.056-.59.08-.124.016-.248.035-.374.048-.225.024-.452.04-.678.056-.1.006-.2.018-.302.023a18.952 18.952 0 01-1.985 0c-.101-.005-.201-.016-.303-.023a17.642 17.642 0 01-.677-.056c-.126-.013-.25-.032-.375-.048a16.657 16.657 0 01-.589-.08c-.142-.022-.282-.05-.423-.076a18.716 18.716 0 01-.52-.099 14.58 14.58 0 01-.47-.109c-.15-.036-.299-.071-.447-.11a19.844 19.844 0 01-1.47-.458l-.273-.099a18.081 18.081 0 01-.646-.255l-.165-.07a18.827 18.827 0 01-.754-.343 18.757 18.757 0 01-6.048-4.663c1.289-4.745 4.937-8.57 9.63-10.092.093.056.19.107.285.16.056.032.111.065.168.095.198.105.4.204.606.293.158.069.321.128.484.188l.096.035c.904.32 1.871.503 2.883.503a8.61 8.61 0 002.883-.503l.096-.035c.162-.06.326-.119.484-.188.206-.089.407-.188.606-.293.056-.03.112-.063.168-.095.095-.053.192-.104.286-.161 4.693 1.523 8.34 5.348 9.63 10.093a18.777 18.777 0 01-6.048 4.662zM12.667 14.667c0-4.044 3.29-7.334 7.333-7.334s7.333 3.29 7.333 7.334a7.328 7.328 0 01-4.16 6.601c-.034.016-.066.033-.1.048a7.501 7.501 0 01-6.146 0c-.034-.015-.067-.032-.1-.048a7.328 7.328 0 01-4.16-6.601zm22.486 16.215a16.064 16.064 0 00-9.365-9.783 8.639 8.639 0 002.879-6.432C28.667 9.888 24.779 6 20 6s-8.667 3.888-8.667 8.667a8.637 8.637 0 002.88 6.432 16.065 16.065 0 00-9.365 9.783A18.557 18.557 0 011.333 20C1.333 9.707 9.707 1.333 20 1.333c10.293 0 18.667 8.374 18.667 18.667a18.56 18.56 0 01-3.514 10.882z" fill="#CCC"/></svg>