<svg width="40" height="35" viewBox="0 0 40 35" fill="none" xmlns="http://www.w3.org/2000/svg"><path d="M19.313 8.548c.4 0 .7 0 1.1-.099h.8c.5-.098 1-.393.9-.982 0-.492-.5-1.081-.8-1.475-.1-.294-.3-.59-.4-.884-.2-.295-.5-.59-.7-.983-.1-.196-.3-.196-.5-.196-.1 0-.3 0-.4.196-.8.983-1.7 1.966-2.1 3.145-.1.393 0 .786.3 1.081.4.295 1.3.197 1.8.197zm-1.2-1.081c0-.099.1-.295.1-.393.3-.787.9-1.376 1.4-2.064.2.295.4.59.6.786.3.393.5.786.8 1.18.1.098.2.294.2.392h-.4c-.5 0-.9.099-1.4.099h-1.4c.1.098 0 .098.1 0zm10.2 22.997c2-.786 3.4-2.752 3.5-4.815.1-2.064-1.5-4.227-3.7-4.227-2.3.099-3.9 2.949-3 4.915.5 1.08 1.8 1.572 2.9.982 1.1-.491.8-1.867.4-2.752-.2-.59-1.1-.196-.9.394.2.393.3.786.3 1.179 0 .491-.6.59-1.1.491-1-.098-1.2-1.572-.9-2.358.3-.885.9-1.573 1.8-1.868 1.1-.393 2 .393 2.6 1.18 1.3 1.867.3 4.324-1.4 5.503-.9.59-2 .885-3 .787-1.1-.099-2-.688-2.8-1.376l-.6-.59c.2.59.5 1.18.7 1.867 1.6.983 3.4 1.376 5.2.688z" fill="#FF8C9D"/><path d="M14.513 9.629c.5-1.18 1.1-2.359 1.8-3.44s1.4-2.064 2-3.145c.3-.59.6-1.572 1.2-1.67.4-.099.9.49 1.2.786.4.393.7.884 1.1 1.375.7.983 1.4 1.966 2.1 3.047.7 1.081 1.2 2.162 1.6 3.342.4 1.18.5 2.457.6 3.734.1 1.18 0 2.26-.6 3.342-.4.688-.9 1.277-1.5 1.67.3-.589.6-1.277.7-1.867.5-2.064.1-4.226-1.5-5.7-1.6-1.376-4.1-1.769-6-.884-.9.393-1.6 1.08-2 1.965.2.393.4.688.6 1.081.1-.295.2-.59.3-.786 1.1-1.966 3.8-2.162 5.6-1.278 1 .492 1.7 1.278 2.1 2.26.4.984.3 2.065 0 3.048a4.85 4.85 0 01-1.6 2.751c-.8.688-2 .787-3 .787.1.294.3.59.4.884.3 0 .6 0 .9-.098h.2c.5-.098 1-.197 1.5-.393-.7.786-1.2 1.769-1.5 2.752.2.491.4.884.6 1.375v.099c.1-.787.4-1.573.7-2.26.5-.983 1.2-1.868 2.2-2.458 1-.59 2.3-.884 3.4-.786 1.3 0 2.5.492 3.5 1.278s1.9 1.867 2.7 2.85c.9.983 1.6 2.064 2.3 3.145.7 1.08 1.2 2.162 1.9 3.243.3.393 1 1.18.9 1.77-.1.392-.9.589-1.3.687-.6.197-1.2.197-1.7.295-1.2.197-2.5.295-3.7.491-1.3.099-2.5.099-3.8-.098-1.3-.197-2.5-.688-3.7-1.18-.3-.098-.6-.294-.9-.49.2.49.3.884.5 1.375.8.393 1.6.688 2.4.885 1.3.393 2.5.59 3.9.59 1.3 0 2.6-.197 3.8-.394 1.2-.196 2.5-.294 3.7-.59.9-.294 1.8-.786 1.7-1.867-.1-.786-.7-1.376-1.1-2.064-.7-1.08-1.3-2.26-2-3.341-.7-1.081-1.5-2.162-2.3-3.145-.8-.983-1.7-1.966-2.7-2.85-1.7-1.474-4.1-1.868-6.3-1.278.2-.197.4-.393.5-.59 1.4-1.965 1.2-4.619.8-6.88-.2-1.277-.6-2.456-1.2-3.636-.6-.982-1.3-2.063-2.1-3.046-.7-.983-1.4-2.064-2.2-2.949-.6-.688-1.5-1.18-2.4-.59-.7.394-1 1.278-1.3 1.868-.6 1.081-1.4 2.162-2.1 3.243-.7 1.081-1.2 2.26-1.7 3.44.2.393.4.688.6 1.081 0-.295.1-.59.2-.786zm-.6 9.435c-.2 0-.3-.099-.5-.099-2.5-.393-4.8.885-6.7 2.261-1.1.786-2 1.67-2.8 2.654-.8.982-1.4 2.162-2 3.243-.6 1.08-1.3 2.064-1.7 3.243-.3.885-.4 1.867.5 2.457.7.393 1.6.295 2.3.393 1.3.099 2.6.295 3.9.492 1.3.098 2.7.098 4 .098 1.3-.098 2.6-.098 3.9-.393 2.5-.492 4.3-2.359 5.1-4.62.3-.687.3-1.474.3-2.162-.1-.294-.3-.688-.4-.982-.5-1.278-1.1-2.556-1.7-3.735-.2-.197-.4-.393-.5-.59h.3c-.2-.393-.3-.688-.5-1.08-.5-.1-.9-.296-1.3-.492-1-.59-1.8-1.573-2.3-2.654-.6-1.18-.7-2.359-.5-3.636.1-.295.2-.59.3-.983-.2-.393-.4-.688-.6-1.081l-.6 1.769c-.7 2.064 0 4.226 1.5 5.897zm-3.8 10.909c1.6 1.278 4.4 1.474 5.7-.393 1.3-1.867-.1-4.816-2.2-5.307-1.2-.295-2.4.491-2.6 1.67-.2 1.18 1.1 1.77 2 2.064.6.197.8-.688.2-.884-.4-.099-.8-.197-1.1-.492-.4-.393-.1-.884.2-1.179.7-.786 2 0 2.4.688.5.786.7 1.67.4 2.555-.3 1.081-1.5 1.376-2.5 1.376-2.3-.098-3.6-2.359-3.6-4.422 0-1.082.5-2.064 1.2-2.85.8-.787 1.8-1.18 2.8-1.377 1.1-.196 2.3-.196 3.2.197 1 .491 1.6 1.474 2.1 2.359.5.983.8 2.064.7 3.145-.1 1.18-.7 2.358-1.4 3.145-.8.983-1.9 1.67-3.1 1.965-1.3.295-2.7.295-4 .394-1.3.098-2.7 0-4-.099-1.3-.098-2.5-.393-3.8-.491-.5 0-1.6.098-1.9-.393-.2-.295.1-1.081.2-1.376.3-.295.6-.787.9-1.376.6-1.081 1.2-2.162 1.9-3.145.7-1.081 1.4-2.064 2.4-2.85 1-.885 2.1-1.573 3.2-2.162 1.1-.59 2.1-.983 3.3-.885.8 0 1.5.197 2.2.59-.7 0-1.4 0-2 .196-2.1.393-3.9 1.671-4.5 3.833-.7 1.868 0 4.226 1.7 5.504z" fill="#FF8C9D"/><path d="M21.013 15.82c.7-.884.6-2.26-.4-3.046-1-.688-2.1.196-2.7.884-.4.492.3 1.081.7.59.3-.295.6-.59.9-.786.5-.197.8.295 1 .688.4.983-.9 1.769-1.7 1.867-.6.098-1.2 0-1.7-.197.2.394.4.787.6 1.082 1.2.294 2.5-.099 3.3-1.082zm-.1 13.858c.3.491.6.983 1 1.376-.6-1.474-1.2-3.047-1.8-4.52 0 1.08.3 2.161.8 3.144zm-2.3-7.273c-.2-.295-.4-.491-.6-.786.6 1.278 1.1 2.457 1.7 3.735.1.295.3.688.4.983-.1-1.278-.7-2.654-1.5-3.932 0 .099 0 .099 0 0zm1-1.179c-.1-.295-.3-.59-.4-.885h-.1c-.6 0-1.3-.098-1.9-.196.2.393.3.688.5 1.081h1.9zm-4.5-5.7c.5.884 1.5 1.376 2.5 1.474-.2-.393-.4-.786-.6-1.081-.3-.099-.6-.295-.8-.492-.6-.59-.7-1.277-.5-2.063-.2-.394-.4-.688-.6-1.082-.4.983-.5 2.163 0 3.244zm6.9 14.25c-.4-.59-.7-1.277-.9-2.064.4.59.9 1.082 1.4 1.475.2.196.5.393.7.59-.2-.59-.5-1.18-.7-1.868-.6-.59-1-1.376-1.2-2.162-.1-.295-.1-.59 0-.885v-.098c-.2-.491-.4-.884-.6-1.376v.098c-.3.983-.5 1.966-.5 2.949.6 1.474 1.2 3.047 1.8 4.52.7.689 1.5 1.18 2.4 1.573-.2-.491-.3-.884-.5-1.376-.8-.196-1.4-.688-1.9-1.376zm10.2 1.474c.5.197 1.2 0 1.6 0 .4 0 .7-.098 1.1-.098.4 0 .8-.098 1.2-.196.2 0 .4-.197.4-.295.1-.098.1-.295.1-.492-.5-1.179-1-2.358-1.9-3.243-.3-.295-.7-.393-1.1-.196-.5.196-.8 1.08-1 1.572-.2.295-.3.688-.4.983-.1.295-.2.491-.3.688-.3.491-.2 1.081.3 1.278zm.4-.884c0-.098.1-.197.1-.295.2-.393.4-.884.6-1.277.1-.197.2-.492.4-.688.1-.197.2-.394.3-.492l.1.098.3.295c.5.59.9 1.376 1.2 2.162-.3.099-.7.099-1 .099-.5 0-1 .098-1.4.098-.3 0-.4.098-.6 0zm-25.6-2.359c-.1-.196-.2-.491-.4-.688-.3-.491-.8-.688-1.3-.393-.5.197-.7.885-1 1.278l-.6.884c-.2.295-.4.688-.6 1.081-.1.197-.1.394 0 .492 0 .098.1.295.3.295 1.2.295 2.5.688 3.8.491.4-.098.8-.295.9-.688.1-.59-.4-1.277-.6-1.769-.1-.393-.3-.688-.5-.983zm.1 2.556h-.4c-.8 0-1.7-.197-2.5-.393.2-.295.3-.59.5-.885.3-.393.5-.786.8-1.18.1-.098.2-.294.3-.393 0 .099.1.197.1.394.2.393.5.786.7 1.179.2.197.3.491.4.688.1.197.2.295.2.491l-.1.099z" fill="#FF8C9D"/></svg>