<svg width="39" height="27" viewBox="0 0 39 27" fill="none" xmlns="http://www.w3.org/2000/svg"><path d="M19.166 23.131c-3.2-1.375-7.4-3.046-7.2-7.076.1-1.572 1.3-3.046 2.9-3.44 1.8-.393 3 .983 3.8 2.26.1.197.3.197.4.197v-1.179c-.2-.295-.4-.491-.6-.786v-.197c-.7-1.867-.9-3.93-1.1-5.897-.1-1.08-.2-2.555-1.3-3.145-1.2-.786-2.6.197-3 1.376-.2.688-.2 1.376-.1 2.064 0 .197 0 .393.1.59l-.6-1.474c-.5-1.376-1.1-2.752-1.9-4.03-.6-.983-1.4-1.769-2.7-1.572-.5.098-.9.491-1.3.884 0 .099-.1.197-.2.295-.3-.491-.8-1.18-1.4-1.376-.5-.196-1-.098-1.5 0-.6.098-1.1.295-1.2.885-.1.393-.2.786-.2 1.277 0 .394.2.787.4 1.18-.3 0-.7.196-1 .295-.6.196-1.2.59-1.4 1.277-.2.59.1 1.278.3 1.77.3.687.6 1.375 1 1.965.4.59.9 1.18 1.3 1.769.5.688.9 1.376 1.3 2.064.3.491.5.983.8 1.474-.2-.098-.4-.295-.5-.393a5.45 5.45 0 00-2.8-.786c-.9.098-1.7.786-1.4 1.67.3.787 1.2 1.376 1.8 1.868 1 .884 1.8 1.769 2.5 2.85.7 1.081 1.3 2.064 2.2 2.85.9.885 2.1 1.573 3.2 2.162 1.1.688 2.2 1.081 3.4 1.18 1 .098 2.1 0 3.1-.393 1-.394 2-1.081 2.9-1.671.1.098.2.098.4.196 0-.491-.1-.983-.1-1.474-.1.393-.2.491-.3.491zm-3.8 2.064c-1.2.295-2.5.197-3.6-.196-1.2-.393-2.4-1.278-3.4-1.966s-1.9-1.572-2.5-2.555c-.7-1.081-1.3-2.162-2.2-3.145-.8-.688-1.7-1.278-2.4-2.064-.1-.197-.5-.491-.2-.688.4-.295 1-.197 1.4-.098 1 .196 1.9.786 2.6 1.572.3.295.5.688.7.983.2.295.4.295.6.197.3 0 .7-.197.6-.59-.4-1.081-1.1-2.064-1.6-3.047-.7-1.277-1.4-2.457-2.2-3.538-.8-.983-1.5-2.162-2-3.341-.1-.295-.2-.492-.3-.787 0-.294.3-.59.5-.688.3-.098.6-.196.8-.294.2-.099.4-.197.5-.099h.3l.7 1.18c.3.688.6 1.277.8 1.867.5 1.18 1.2 2.359 1.9 3.44.7 1.08 1.4 2.26 2.1 3.341.3.492 1.1 0 .8-.491-.7-.983-1.2-2.064-1.9-3.047-.7-1.08-1.4-2.162-1.9-3.243-.2-.491-.4-.983-.6-1.573-.3-.49-.6-1.08-.9-1.572-.6-.983-1.2-1.867-.7-3.047v-.098c.2-.098.9-.098 1-.098.6 0 .9.393 1.3.884.8.983 1.6 2.064 2.2 3.145.6 1.081.9 2.359 1.4 3.44.5 1.18 1.1 2.359 1.8 3.538.3.492 1.1 0 .8-.491-.8-1.278-1.5-2.654-2-4.03-.4-.786-.6-1.474-.9-2.162-.3-.688-.7-1.376-1.1-1.966-.2-.294-.4-.687-.7-.982.1-.099.2-.197.1-.393 0-.099.1-.099.1-.197.1-.197.3-.295.4-.491.3-.295.9-.197 1.2 0 .8.491 1.2 1.572 1.6 2.457.5 1.08.9 2.162 1.4 3.243.4 1.081 1 2.162 1.6 3.145.2.393 1 .393.9-.197l-.3-2.653c-.1-.59-.2-1.278-.1-1.966.1-.491.3-.983.7-1.18.4-.294 1-.098 1.3.197.3.393.4.885.5 1.278.1.688.1 1.278.2 1.966.1 1.277.3 2.653.6 3.93-.6-.392-1.4-.49-2.2-.392-2 .196-3.5 1.867-3.9 3.636-.5 2.064.5 4.128 2 5.504 1.4 1.376 3.3 2.162 5.1 2.948-.9.59-1.8 1.18-2.9 1.474zm9.8 1.081c1.3-.098 2.4-.49 3.4-1.179 1.1-.688 2.2-1.376 3.2-2.162.9-.885 1.6-1.867 2.2-2.85.7-1.081 1.5-2.064 2.5-2.85.6-.492 1.5-1.081 1.8-1.868.3-.884-.5-1.572-1.4-1.67-1-.099-1.9.294-2.8.786-.2.098-.4.196-.5.393.3-.492.5-.983.8-1.474.4-.688.8-1.376 1.3-2.064.4-.59.9-1.18 1.3-1.77.4-.589.8-1.277 1-1.965.2-.59.5-1.18.3-1.769-.2-.59-.8-.983-1.4-1.278-.3-.098-.6-.294-1-.294.2-.394.3-.787.4-1.18 0-.491 0-.884-.2-1.277-.1-.885-.6-1.082-1.1-1.18-.5-.098-1.1-.098-1.5 0-.7.197-1.1.885-1.5 1.376-.1-.098-.1-.196-.2-.295-.3-.393-.8-.884-1.4-.884-1.2-.197-2.1.59-2.7 1.572-.7 1.278-1.3 2.654-1.9 4.03l-.6 1.474c0-.197 0-.393.1-.59.1-.688.1-1.376-.1-2.064-.4-1.179-1.8-2.162-3-1.376-.6.394-.9 1.082-1.1 1.77-.1 2.555-.2 5.208-.2 7.764.7-.59 1.5-.983 2.6-.786 1.6.294 2.8 1.768 2.9 3.44.2 3.243-2.5 5.012-5.3 6.29 0 .294 0 .687.1.982 1.5-.59 3-1.376 4.1-2.457 1.5-1.376 2.4-3.44 2-5.504-.4-1.867-1.9-3.44-3.9-3.636-.8-.098-1.6.098-2.2.393.3-1.278.5-2.654.6-3.931.1-.688.1-1.278.2-1.966.1-.491.2-.983.5-1.277.3-.394.9-.492 1.3-.197s.6.688.7 1.18c.1.687 0 1.375-.1 2.063l-.3 2.654c-.1.59.7.59.9.196.5-1.08 1.1-2.063 1.6-3.145.4-1.08.8-2.162 1.4-3.243.4-.786.8-1.965 1.6-2.457.4-.196.9-.196 1.2 0 .2.098.3.295.4.492 0 .098.1.098.1.196-.1.098 0 .295.1.393-.2.295-.4.59-.7.983-.4.688-.8 1.278-1.1 1.966-.3.688-.5 1.376-.8 2.064-.6 1.375-1.2 2.751-2 4.03-.3.49.5 1.08.8.49.7-1.08 1.3-2.26 1.8-3.538.5-1.179.8-2.358 1.4-3.44.6-1.08 1.4-2.162 2.2-3.144.4-.394.6-.885 1.2-.885.1 0 .8 0 1 .098v.099c.5 1.179-.2 2.063-.7 3.046-.3.59-.6 1.081-.9 1.671-.2.491-.4.983-.7 1.573-.5 1.08-1.1 2.162-1.8 3.144-.7.983-1.2 2.064-1.9 3.047-.3.492.4.983.8.492.7-1.081 1.4-2.26 2.1-3.342.7-1.081 1.4-2.162 1.9-3.341.3-.59.5-1.278.8-1.868l.7-1.18h.3c.2 0 .4.1.5.1.2.097.5.196.7.294.2.098.6.393.5.688 0 .295-.1.491-.2.688-.5 1.278-1.2 2.359-2 3.341-.9 1.082-1.6 2.26-2.2 3.539-.5 1.08-1.3 1.965-1.6 3.046-.1.393.3.688.6.59.2.098.4.098.6-.098.2-.295.5-.688.7-.983.7-.786 1.6-1.376 2.6-1.573.4-.098 1-.196 1.4.099.3.196-.1.59-.2.688-.7.786-1.6 1.277-2.3 2.063-.9.983-1.5 2.064-2.2 3.145a8.795 8.795 0 01-2.5 2.556c-1.1.688-2.2 1.572-3.4 1.965-1.1.393-2.5.492-3.6.197-.6-.197-1.2-.491-1.7-.786 0 .393 0 .688.1 1.08.3.1.5.296.8.394.7.197 1.8.295 2.8.197z" fill="#FF8C9D"/><path d="M20.066 23.721c.3-.098.7-.295 1-.393 0-.295 0-.688-.1-.983-.6.295-1.1.492-1.6.688 0 .492.1.983.1 1.474.6.394 1.2.688 1.8 1.081 0-.393 0-.687-.1-1.08-.3-.295-.7-.59-1.1-.787zm-.5-8.845c.4-.59.8-1.081 1.2-1.474 0-2.556.1-5.21.2-7.764-.1.49-.1.982-.2 1.375-.2 1.966-.3 4.03-1.1 5.897v.197c-.2.196-.4.491-.6.786v1.18c.3 0 .4 0 .5-.197z" fill="#FF8C9D"/></svg>