<svg width="34" height="34" viewBox="0 0 34 34" fill="none" xmlns="http://www.w3.org/2000/svg"><path d="M5.405 21.015c0-.793.196-1.686.49-2.479.1-.396.296-.693.492-.99.59.594 1.376.99 2.26 1.288.295-.198.59-.397.885-.694-.59-.198-1.18-.397-1.67-.694l-.885-.595a2.13 2.13 0 01.786-.495c.786-.397 1.572-.793 2.457-.992.491-.099.884-.198 1.375-.198.295.298.59.595.983.892.295-.198.59-.396.786-.594-.098-.1-.196-.1-.295-.199.197 0 .295.1.492.1.294-.199.491-.397.786-.496.098-.1.196-.1.295-.198-.787-.298-1.67-.397-2.555-.397-.295-.297-.492-.694-.786-.991-.492-.793-.787-1.586-1.081-2.38-.099-.396-.197-.693-.197-.99.295 0 .59.099.885.198.884.297 1.67.595 2.456 1.09.393.297.786.496 1.081.892 0 .892.098 1.785.393 2.677.295-.199.492-.397.786-.496-.098-.297-.196-.694-.196-.991.196.297.393.495.491.793.295-.198.491-.397.786-.496-.393-.595-.786-1.19-1.375-1.784 0-.397.098-.892.196-1.289.197-.892.491-1.685.983-2.478l.59-.892c.196.198.392.496.49.793.394.793.787 1.586.983 2.478.099.496.197.892.197 1.388-.295.297-.59.595-.786.892a99.354 99.354 0 015.404-3.37c-1.08.198-2.162.694-3.144 1.288-.197.1-.393.298-.59.397a1.88 1.88 0 00-.196-.793c-.295-1.289-.787-2.676-1.67-3.668.294-.198.589-.297.884-.495.786-.298 1.67-.496 2.554-.496h.688l.393.397c.59.693 1.081 1.387 1.376 2.18.098.298.197.496.295.793.295-.198.59-.297.786-.495a7.631 7.631 0 00-1.376-2.478l-.098-.1c.196 0 .393.1.59.1 1.474.198 2.85.396 4.225.099 0 .198 0 .396-.098.495.295-.198.688-.396.982-.594 0-.496 0-.793-.098-.893-.196-.198-4.029 0-5.797-.297-.295-.1-.688-.1-.983-.1-.295-.296-.59-.495-.885-.693C19.751 2.974 17.196 0 16.902 0c-.295 0-2.85 2.875-4.324 3.965-.295.198-.491.397-.786.595-.393 0-.786.099-1.18.198-1.473-.1-5.404-.297-5.6-.1-.197.2 0 4.065-.295 5.85-.098.297-.098.693-.098.99-.295.298-.492.595-.688.893C2.948 13.878 0 16.455 0 16.752c0 .298 2.85 2.875 3.93 4.362.197.297.394.495.59.793.295-.198.59-.496.885-.694v-.198zm8.647-17.15c1.18-.891 2.26-1.783 3.046-2.874.885 1.19 1.867 2.082 3.047 2.875.196.099.393.297.59.396h-.296c-.982.1-1.867.397-2.751.793-.197.1-.393.199-.59.397-.196-.198-.491-.297-.688-.397-.884-.396-1.768-.693-2.751-.793h-.197c.197-.099.393-.297.59-.396zm-1.67 1.29h.59c.785 0 1.67.198 2.456.495.393.1.688.298.982.496-.884.991-1.474 2.379-1.768 3.767-.099.198-.099.495-.099.693-.196-.198-.491-.297-.688-.495-1.08-.694-2.456-1.289-3.734-1.388.099-.297.197-.595.295-.991.393-.793.885-1.487 1.376-2.082.196-.198.393-.396.59-.495zM5.798 9.813c.196-1.387.294-2.775.098-4.262 1.474.198 2.85.1 4.225-.1.295 0 .492-.098.787-.098-.099.099-.099.198-.197.297-.59.793-1.08 1.685-1.376 2.577-.098.1-.196.298-.196.595-.295 0-.492.1-.786.1-.885.297-1.77.792-2.555 1.387l-.099.1c0-.2.099-.397.099-.596zm-.295 2.082c.098-.1.196-.297.393-.396.688-.595 1.376-1.09 2.162-1.388a4.763 4.763 0 011.08-.397c.099 1.388.689 2.776 1.377 3.965.098.199.294.397.393.595-.295 0-.59.1-.787.198-1.277.298-2.653.793-3.635 1.685-.197-.297-.295-.594-.492-.892-.295-.793-.491-1.685-.491-2.577-.098-.297-.098-.595 0-.793zM4.52 20.42c-.098-.198-.196-.298-.393-.496-.884-1.19-1.769-2.28-2.85-3.073 1.18-.892 2.064-1.883 2.85-3.073.098-.198.295-.396.393-.594v.297c.099.991.393 1.883.786 2.776.099.198.197.396.393.594-.196.199-.294.496-.393.694-.393.892-.688 1.784-.786 2.776v.099zm13.168-5.65c0-.1.098-.298.196-.397-.196.1-.393.298-.59.397h.394z" fill="#FF8C9D"/><path d="M10.711 29.242c.295.1.688.1.983.1.294.297.59.495.884.693 1.474.991 4.029 3.965 4.324 3.965.294 0 2.85-2.875 4.323-3.965.295-.198.492-.396.787-.595.393 0 .786-.099 1.179-.198 1.768-.297 5.6-.1 5.797-.297.197-.199 0-4.064.295-5.849.098-.297.098-.694.098-.991.295-.297.492-.595.688-.892C31.052 19.726 34 17.149 34 16.85c0-.297-2.85-2.874-3.93-4.361-.197-.298-.394-.496-.59-.793 0-.397-.099-.793-.197-1.19a26.905 26.905 0 01-.196-3.073c-.393.199-.688.397-1.081.595 0 .595.098 1.19.196 1.784 0 .298.099.496.099.793-.099-.099-.197-.099-.295-.198a11.03 11.03 0 00-2.064-1.19l-2.063 1.19v.198c-.295.893-.59 1.685-1.081 2.38-.295.396-.492.792-.885 1.09-.982 0-2.063.099-2.948.495.197-.495.393-.99.393-1.486-.393.198-.786.495-1.179.693-.098.298-.196.595-.295.793 0 .1-.098.199 0 .199l.295.297c.197.198.295.397.393.595.099 0 .099 0 .197-.1.59-.297 1.376-.495 2.063-.594-.491.396-1.179.694-1.768.991-.197.1-.197.198-.295.298v.495c0 .198 0 .397-.098.496 0 0 .098.099.196.099.688.198 1.277.595 1.867.991-.688-.099-1.277-.297-1.965-.595-.098-.099-.197-.099-.295 0-.098.1-.098.199-.197.298l-.098.099c-.098.1-.295.198-.393.297v.1c.295.594.491 1.387.59 2.081-.393-.496-.688-1.19-.983-1.784 0-.1-.098-.1-.098-.198-.099.099-.295.099-.492.099h-.196c-.197 0-.393 0-.59-.1-.196.694-.59 1.29-.982 1.884.098-.694.294-1.289.59-1.983v-.099a1.354 1.354 0 01-.394-.297l-.098-.1c-.197-.197-.295-.297-.393-.495a6.48 6.48 0 01-1.965.595c.49-.397 1.179-.694 1.768-.991h.099c-.099-.199-.099-.397-.099-.595v-.1c0-.197 0-.297.099-.495-1.376.991-2.85 1.983-4.226 2.974h.197c-.197.198-.295.496-.492.694-.687 1.09-1.277 2.478-1.375 3.767-.295-.1-.59-.199-.983-.298a8.476 8.476 0 01-1.572-.991c-.295.198-.492.396-.786.595.098 0 .098.099.196.099.786.595 1.67 1.09 2.555 1.388.197.099.393.099.688.198 0 .297.098.495.196.793.295.892.787 1.784 1.376 2.577l.098.1c-.196 0-.393-.1-.59-.1-1.473-.198-2.849-.396-4.225-.099.197-1.388.099-2.775-.098-4.262 0-.199-.098-.397-.098-.595-.295.198-.59.396-.885.694.197 1.883 0 4.956.197 5.154.295.496 4.225.298 5.896.595zm9.335.595c-1.179.892-2.26 1.784-3.046 2.874-.884-1.19-1.867-2.081-3.046-2.874-.197-.1-.393-.298-.59-.397h.295c.983-.099 1.867-.396 2.751-.793.197-.099.393-.198.59-.396.197.198.491.297.688.396.884.397 1.769.694 2.751.793h.197c-.295.198-.393.298-.59.397zm8.255-5.948c-.197 1.487-.393 2.875-.099 4.263-1.375-.199-2.751-.1-4.225.099-.295 0-.491.099-.786.099.098-.1.098-.198.196-.298.59-.793 1.081-1.685 1.376-2.577.098-.198.098-.396.196-.694.295 0 .492-.099.787-.198.884-.297 1.769-.793 2.555-1.388l.098-.099c-.098.397-.098.595-.098.793zm.294-2.081l-.393.396c-.688.595-1.375 1.09-2.162 1.388a4.76 4.76 0 01-1.08.396c-.099-1.387-.688-2.775-1.376-3.965-.099-.198-.295-.396-.393-.594.295 0 .59-.1.786-.199 1.277-.297 2.653-.793 3.636-1.685.196.298.294.595.491.892.295.793.491 1.685.491 2.578v.793zm.983-8.327v-.198c.098.198.197.297.393.495.884 1.19 1.769 2.28 2.85 3.073-1.18.892-2.064 1.884-2.85 3.073-.098.198-.295.397-.393.595v-.297c-.098-.992-.393-1.884-.786-2.776-.098-.198-.197-.396-.393-.595.196-.198.295-.495.393-.694.295-.793.59-1.685.786-2.676zm-5.896.198c.688-1.09 1.277-2.478 1.376-3.766.295.099.59.198.983.297.786.396 1.474.793 2.161 1.388l.492.495v.595c-.099.892-.197 1.685-.492 2.577-.098.397-.295.694-.491.992-.983-.893-2.358-1.487-3.734-1.785-.197-.099-.492-.099-.688-.099.098-.198.295-.495.393-.694zm-3.636 3.271a8.367 8.367 0 002.457-1.685c.393 0 .884.1 1.277.199.885.198 1.67.495 2.457.99l.884.596a2.137 2.137 0 01-.786.495c-.786.397-1.572.793-2.456.991-.492.1-.885.199-1.376.199-.786-.793-1.572-1.487-2.457-1.785zm1.966 2.677c.294.297.49.694.786.991.491.793.786 1.586 1.08 2.38.099.396.197.693.197.99-.295 0-.59-.099-.884-.198-.885-.297-1.67-.595-2.457-1.09-.393-.298-.786-.496-1.08-.892 0-.992-.1-2.082-.492-2.974.884.595 1.867.793 2.85.793zm-2.654 4.163c.099-.198.099-.495.099-.694.196.198.491.298.688.496 1.08.694 2.456 1.289 3.734 1.388-.099.297-.197.594-.295.99-.393.794-.786 1.488-1.376 2.182l-.491.495h-.59c-.884-.099-1.67-.198-2.555-.495-.393-.1-.688-.298-.982-.496.982-1.09 1.474-2.478 1.768-3.866zM17 19.924a8.448 8.448 0 001.67 2.478c0 .397-.098.892-.196 1.289-.197.892-.491 1.685-.983 2.478l-.59.892a2.161 2.161 0 01-.49-.793c-.394-.793-.787-1.586-.983-2.478-.099-.495-.197-.892-.197-1.388.786-.793 1.376-1.586 1.769-2.478zm-6.977 3.172c.295-.892.59-1.685 1.081-2.379.295-.396.491-.793.884-1.09.983 0 2.064-.1 2.948-.496-.393.892-.59 1.884-.59 2.974-.294.297-.687.496-.982.793-.786.496-1.572.793-2.457 1.09-.393.1-.687.199-.982.199 0-.496 0-.793.098-1.09zm.295 2.875a4.859 4.859 0 01-.393-1.09c1.376-.1 2.751-.694 3.93-1.388.197-.1.394-.298.59-.397 0 .298.098.595.197.793.294 1.289.786 2.677 1.67 3.668-.295.198-.59.297-.884.495-.786.298-1.67.496-2.555.496h-.688l-.393-.396c-.688-.694-1.18-1.388-1.474-2.181z" fill="#FF8C9D"/><path d="M13.364 15.364c-.295.199-.59.397-.786.595.491.397.983.694 1.474.892a8.367 8.367 0 00-2.457 1.685c-.393 0-.884-.099-1.277-.198-.295-.099-.491-.099-.786-.198-.295.198-.59.396-.885.694.492.198.983.396 1.573.495.196 0 .294.1.491.1a157.286 157.286 0 014.225-2.974v-.198c-.59-.298-1.08-.496-1.572-.893zm-7.763 7.732c.295-.198.59-.396.786-.595-.196-.099-.393-.297-.59-.396l-.49-.496v-.297c-.295.198-.59.496-.885.694 0 .396.098.793.197 1.19 0 .198.098.495.098.693.295-.198.59-.396.884-.694v-.099zM28.104 8.128c.393-.198.688-.396 1.081-.594V5.65c-.295.198-.688.397-.983.595-.098.595-.098 1.19-.098 1.883zm-3.046.793c0-.297-.099-.495-.197-.793-.294.1-.59.298-.884.496 0 .099.098.198.098.297-.295 0-.491.1-.786.1-1.769 1.09-3.636 2.18-5.405 3.37-.393.495-.688.99-.884 1.586-.098-.199-.197-.496-.295-.694-.295.198-.491.297-.786.495.197.298.295.595.393.992 0 0 0 .099.098.099.197 0 .295-.1.492-.1h.393c.196-.098.393-.297.59-.396.196-.495.49-1.09.884-1.487-.098.397-.098.793-.295 1.09.393-.297.786-.495 1.18-.693.097-.496.097-.992.097-1.388.295-.297.688-.496.983-.793.786-.496 1.572-.793 2.457-1.09.393-.1.688-.199.982-.199 0 .199-.098.496-.098.694l2.064-1.19c-.098-.098-.295-.098-.393-.197-.295-.1-.492-.1-.688-.199zM15.035 15.76c.098-.197.196-.296.393-.495l.098-.099c.098-.099.295-.198.491-.297-.196-.298-.294-.694-.393-.991-.295.198-.491.396-.786.495 0 .1.098.198.098.298-.098-.1-.294-.1-.393-.1-.098.1-.196.1-.294.199-.295.198-.492.396-.787.495.59.1 1.081.298 1.573.496z" fill="#FF8C9D"/></svg>