<svg width="60" height="60" viewBox="0 0 60 60" fill="none" xmlns="http://www.w3.org/2000/svg"><circle cx="30" cy="30" r="29.5" stroke="url(#paint0_linear)"/><g filter="url(#filter0_b)"><path d="M30.334 10C19.104 10 10 18.947 10 29.984c0 11.037 9.104 19.984 20.334 19.984s20.333-8.947 20.333-19.984C50.667 18.947 41.563 10 30.334 10zm7.027 21.043l-10.166 6.245a1.288 1.288 0 01-1.29.033 1.245 1.245 0 01-.655-1.092v-12.49c0-.454.251-.872.655-1.092a1.287 1.287 0 011.29.033l10.166 6.245c.372.228.598.628.598 1.059 0 .43-.226.83-.598 1.06z" fill="#FA3F5A"/></g><defs><linearGradient id="paint0_linear" x1="5.4" y1="16.2" x2="60" y2="40.2" gradientUnits="userSpaceOnUse"><stop stop-color="#FA3F5A"/><stop offset=".823" stop-color="#FA3F5A" stop-opacity="0"/></linearGradient><filter id="filter0_b" x="6" y="6" width="48.667" height="47.968" filterUnits="userSpaceOnUse" color-interpolation-filters="sRGB"><feFlood flood-opacity="0" result="BackgroundImageFix"/><feGaussianBlur in="BackgroundImage" stdDeviation="2"/><feComposite in2="SourceAlpha" operator="in" result="effect1_backgroundBlur"/><feBlend in="SourceGraphic" in2="effect1_backgroundBlur" result="shape"/></filter></defs></svg>