<svg xmlns="http://www.w3.org/2000/svg" width="196" height="34" viewBox="0 0 196 34"><path d="M9.585 16.389h3.396c1.041 0 2.808-.09 3.94-.996 1.268-.997 1.404-2.627 1.404-3.533 0-.906-.136-2.536-1.404-3.532-1.132-.906-2.899-.997-3.94-.997H9.585v9.058zM12.71.99c3.533 0 7.428.227 10.417 2.219 3.532 2.355 4.212 5.752 4.212 8.74 0 2.99-.68 6.387-4.212 8.74-2.989 1.994-6.884 2.22-10.417 2.22H9.585v9.783H.617V.99H12.71zm26.222 9.059l.362 2.944c.363-.726.95-1.54 1.63-2.13 1.179-1.041 2.9-1.585 4.485-1.54 1.449.046 2.807.636 3.034.726V18.2c-1.178-1.224-3.216-2.4-5.208-2.356-1.903.045-2.808 1.132-3.261 1.902-.68 1.224-.68 2.764-.68 3.85v11.096h-8.785V10.05h8.423zm28.034 7.246c-.815-1.268-1.992-1.856-3.532-1.856-1.494 0-2.718.588-3.578 1.9-.815 1.269-.906 2.764-.906 3.896 0 1.177.091 2.672.906 3.94.86 1.313 2.084 1.902 3.578 1.902 1.54 0 2.717-.59 3.532-1.856.815-1.27.906-2.9.906-3.986 0-1.404-.18-2.808-.906-3.94zm9.466 15.398h-8.47l-.316-2.944c-.544.997-2.31 3.669-7.066 3.669-3.35 0-5.932-1.313-7.744-3.352-1.63-1.811-3.034-4.665-3.034-8.695 0-4.031 1.404-6.884 3.034-8.695 1.812-2.038 4.394-3.352 7.744-3.352 3.125 0 5.616 1.223 7.066 3.578l.316-2.853h8.47v22.644zM89.746.99v17.256h2.944l4.575-8.197h9.283l-6.43 10.597 6.656 12.047h-9.782l-4.302-9.284h-2.944v9.284h-8.785V.99zm21.694 9.059v-3.17l8.786-4.53v7.7h3.759v5.707h-3.76v16.938h-8.785V15.755h-3.76v-5.707zm15.715 22.644h8.786V10.048h-8.786v22.645zm0-25.135h8.786V.991h-8.786v6.567zM149.708.99v17.256h2.944l4.575-8.197h9.283l-6.43 10.597 6.656 12.047h-9.782l-4.302-9.284h-2.944v9.284h-8.785V.99zm36.005 16.305c-.815-1.268-1.993-1.856-3.533-1.856-1.494 0-2.717.588-3.577 1.9-.816 1.269-.907 2.764-.907 3.896 0 1.177.091 2.672.907 3.94.86 1.313 2.083 1.902 3.577 1.902 1.54 0 2.718-.59 3.533-1.856.814-1.27.905-2.9.905-3.986 0-1.404-.18-2.808-.905-3.94zm9.465 15.398h-8.469l-.317-2.944c-.543.997-2.31 3.669-7.065 3.669-3.35 0-5.932-1.313-7.744-3.352-1.63-1.811-3.034-4.665-3.034-8.695 0-4.031 1.403-6.884 3.034-8.695 1.812-2.038 4.393-3.352 7.744-3.352 3.125 0 5.615 1.223 7.065 3.578l.317-2.853h8.47v22.644z" fill="#1DB1B1" fill-rule="evenodd"/></svg>